<svg xmlns="http://www.w3.org/2000/svg"><defs><font horiz-adv-x="1372"><font-face units-per-em="2048" ascent="1638" descent="-410"/><glyph unicode="ﬁ" horiz-adv-x="1351" d="M92 80q100 20 122 41.5t22 75.5v632h-134l-8 89 101 24q27 6 35 22.5t10 51.5 7 69.5 20.5 95 37 110.5 60 105.5 90.5 94.5q115 90 288 90 125 0 277-45 0-139-35-248l-111-12q-31 166-49 174-45 23-135 23-135 0-202.5-147.5t-67.5-356.5h242q141 0 291.5 5t152.5 5l22-21v-811q0-25 11.5-31.5t29.5-11.5l101-24-8-80h-449l-12 80q100 20 121.5 41.5t21.5 75.5v587q0 45-33.5 63.5t-125 18.5-365.5-24v-695q0-20 8-29t37-14l133-24-8-80h-486z"/><glyph unicode="ﬂ" horiz-adv-x="1337" d="M92 80q100 20 122 41.5t22 75.5v632h-134l-8 89 101 24q27 6 35 22.5t14 89 36.5 166 94 178.5 179.5 134 261.5 49 263.5-18l35-54v-1362q0-25 10.5-31.5t30.5-11.5l100-24-8-80h-448l-13 80q100 20 122 41.5t22 75.5v1189q0 92-170 92.5t-255-138-85-386.5h242l-17-96-225-31v-680q0-20 8-29t37-14l133-24-8-80h-486z"/><glyph unicode="ﬃ" horiz-adv-x="2039" d="M92 80q100 20 122 41.5t22 75.5v632h-134l-8 89 101 24q27 6 35 22.5t11 57.5 11 90 35.5 128 68.5 136.5 115 100.5 175.5 43 219.5-45q0-127-28-228l-101-12q-31 143-49 154-23 23-84 22-96 0-140-124t-44-318h442q41 0 53.5 18.5t16.5 66.5 16.5 104 47 138 86 140.5 142.5 101.5 211.5 43 272.5-45q0-139-35-248l-110-12q-31 166-50 174-45 23-135 23-135 0-202.5-147.5t-67.5-356.5h242q141 0 291.5 5t152.5 5l23-21v-811q0-25 10-31.5t31-11.5l100-24-8-80h-449l-12 80q100 20 121.5 41.5t21.5 75.5v587q0 45-33.5 63.5t-125 18.5-365.5-24v-695q0-25 10-31.5t31-11.5l137-24-8-80h-485l-13 80q100 20 122 41.5t22 75.5v657q-373 0-504-12v-695q0-20 8-29t37-14l133-24-8-80h-486z"/><glyph unicode="ﬄ" horiz-adv-x="2025" d="M92 80q100 20 122 41.5t22 75.5v632h-134l-8 89 101 24q27 6 35 22.5t11 57.5 11 90 35.5 128 68.5 136.5 115 100.5 175.5 43 219.5-45q0-127-28-228l-101-12q-29 133-50 154.5t-83 21.5q-96 0-140-128t-44-329h442q37 0 50.5 17.5t15.5 52.5q68 557 588 557 133 0 251-18l35-54v-1362q0-25 10.5-31.5t30.5-11.5l101-24-9-80h-448l-12 80q100 20 121.5 41.5t21.5 75.5v1189q0 92-170 92.5t-255-138-85-386.5h242l-17-96-225-31v-680q0-25 10-31.5t31-11.5l137-24-8-80h-485l-13 80q100 20 122 41.5t22 75.5v643q-373 0-504-13v-680q0-20 8-29t37-14l133-24-8-80h-486z"/><glyph horiz-adv-x="2048"/><glyph horiz-adv-x="2048"/><glyph horiz-adv-x="681"/><glyph horiz-adv-x="501"/><glyph horiz-adv-x="501"/><glyph horiz-adv-x="501"/><glyph unicode="!" horiz-adv-x="462" d="M82 90q0 51 31.5 82t87.5 31q117 0 116-109 0-47-31.5-79.5t-83.5-32.5-86 28.5-34 79.5zm49 1288l211 62 25-39-107-1039-102 5z"/><glyph unicode=""" horiz-adv-x="677" d="M100 1542l156 51 27-39-84-501-88 6zm310 0l155 51 27-39-84-501-88 6z"/><glyph unicode="#" horiz-adv-x="1128" d="M72 455v120h215l41 312h-213v121h227l55 411h119l-55-411h270l55 411h119l-55-411h205v-121h-219l-41-312h217v-120h-232l-59-455h-121l59 455h-268l-59-455h-121l59 455h-198zm334 120h270l41 312h-271z"/><glyph unicode="$" horiz-adv-x="983" d="M113 147.5q0 79.5 18 212.5l117 11q18-158 26.5-192t26.5-44q43-27 131-39v381q-236 98-289 211-27 51-26 119 0 121 85 205t230 108v248h117v-238q154-2 299-57 2-18 2-100t-29-185l-102-12q-14 188-49 213-39 25-121 29v-361q254-106 307-215 27-55 27-123 0-123-89-214t-245-115v-252h-117v244q-195 4-315 55-4 31-4 110.5zm168 731.5q0-100 151-170v307q-152-14-151-137zm268-785q72 6 114 45t42 105q0 102-156 182v-332z"/><glyph unicode="%" horiz-adv-x="1654" d="M51 1002.5q0 177.5 95.5 306.5t253 129 246.5-121 89-297-95-305-253-129-247 119.5-89 297zm168 25.5q0-176 50-265t137-89q162 0 161 307 0 174-50 271.5t-132 97.5q-166 0-166-322zm72-1028l915 1419h133l-913-1419h-135zm629 398q0 177 95 306.5t252.5 129.5 247-121 89.5-297-95.5-305-253-129-246.5 119.5-89 296.5zm167 26q0-176 50.5-265t136.5-89q162 0 162 307 0 174-50.5 271t-132.5 97q-166 0-166-321z"/><glyph unicode="&" horiz-adv-x="1402" d="M82 336q0 291 283 414-168 180-168 341.5t105.5 254 279.5 92.5q129 0 262-52 2-16 2-91.5t-27-159.5l-94-11q-14 160-46 182.5t-138 22.5q-182 0-183-168 0-66 37-132t148-185l426-461q92 170 92 352 0 78-37 108.5t-160 45.5l13 80h466l9-80-127-25q-41-8-41-53-10-299-135-514l147-158q51-51 166-59l-12-80h-295l-131 139q-168-158-414-157-201 0-314.5 100t-113.5 254zm213 63q0-125 73.5-206.5t217-81.5 264.5 110l-410 445q-145-84-145-267z"/><glyph unicode="'" horiz-adv-x="368" d="M100 1542l156 51 27-39-84-501-88 6z"/><glyph unicode="(" horiz-adv-x="595" d="M86 599q0 294 129 549t287 411l69-58q-139-162-228-406.5t-89-494.5 88-507 229-423l-69-57q-160 160-288 426t-128 560z"/><glyph unicode=")" horiz-adv-x="595" d="M25-330q141 166 229 423t88 507-89 494.5-228 406.5l69 58q158-156 287-411t129-549-128-560-288-426z"/><glyph unicode="*" horiz-adv-x="800" d="M51 1010l10 26 220 88q39 16 61 17v16q-27 0-61 12l-199 84 22 127 29 4 186-145q39-33 46-45l14 8q-16 33-19 62l-26 215 121 45 18-25-33-233q-8-49-16-62l14-8q12 25 41 47l174 129 97-82-11-26-217-90q-39-16-61-17v-16q37 0 59-11l199-86-23-124-28-5-187 144q-39 33-45 45l-14-8q18-37 20-60l27-215-121-43-18 23 32 233q8 49 17 62l-14 8q-12-27-43-47l-172-129z"/><glyph unicode="+" horiz-adv-x="954" d="M92 500v108h334v342h102v-342h334v-108h-334v-350h-102v350h-334z"/><glyph unicode="," horiz-adv-x="516" d="M131-227q84 100 84 184 0 47-36 90t-36 85 34 70.5 85 28.5 88-44 37-124q0-184-201-344z"/><glyph unicode="-" horiz-adv-x="604" d="M70 416l24 151 447 29-33-127z"/><glyph unicode="." horiz-adv-x="516" d="M133 101.5q0 56.5 34 93t89 36.5q127 0 127-122 0-54-35-90.5t-90-36.5-90 31.5-35 88z"/><glyph unicode="/" horiz-adv-x="800" d="M31-123l598 1704h141l-596-1704h-143z"/><glyph unicode="0" horiz-adv-x="1093" d="M66 544q0 265 130 425.5t358 160.5 351-149.5 123-414.5-130-424.5-358.5-159.5-351 148.5-122.5 413.5zm198 27q0-211 76.5-346t226.5-135q119 0 176 72 37 47 61.5 151.5t24.5 227.5q0 211-76.5 346t-226.5 135q-119 0-176-72-37-47-61.5-151.5t-24.5-227.5z"/><glyph unicode="1" horiz-adv-x="724" d="M78 1036q61 27 184 54.5t191 29.5l22-20v-953q0-25 11.5-31.5t29.5-11.5l158-24-8-80h-562l-12 80q117 18 158 42.5t41 74.5v628q0 102-9.5 123t-49 21-138.5-11z"/><glyph unicode="2" horiz-adv-x="968" d="M61 0v109q360 293 426 370 109 127 125.5 186.5t16.5 110.5q0 106-61.5 176t-166 70-143.5-31q-25-20-47-221l-111 12q-16 74-16 154t2 100q119 94 327 94t311-88 103-238.5-127-302-403-341.5l4-15 123 5q264 8 298 15t77 159l94-9q2-18 2-61 0-141-33-254h-801z"/><glyph unicode="3" horiz-adv-x="960" d="M88 945q0 71 2 91 143 94 329.5 94t294-75.5 107.5-192.5-57-196.5-146-120.5l3-17q117-23 192.5-94.5t75.5-193.5q0-205-215-346.5t-561-176.5l-11 115q262 35 417 128t155 239q0 96-72 153.5t-217 57.5q-55 0-106-9l6 99q178 29 260 113.5t82 185-58.5 162-158.5 61.5q-133 0-160-47-25-39-35-205l-109 12q-18 92-18 163z"/><glyph unicode="4" horiz-adv-x="1093" d="M16 217l650 877q115 27 176 26l22-20v-889l209-4-18-117h-191v-340q-66-12-162-12l-22 20v332h-614l-3 2zm146 19l8-15 510-8v641q0 43 4 61l-12 7-473-641q-17-25-37-45z"/><glyph unicode="5" horiz-adv-x="987" d="M102-168q285 37 450 143.5t165 262.5q0 98-75 166.5t-208 68.5-260-47l-45 53 45 621h524q10 0 17 6 16 20 39 143l104-14q-8-193-29-301h-532l-25-367q102 35 228 35 203 0 316.5-87t113.5-236q0-215-225-372t-592-190z"/><glyph unicode="6" horiz-adv-x="1056" d="M92 504q0 332 211 573.5t510 315.5l41-84q-451-188-539-576l17-6q104 135 265 135t273.5-119.5 112.5-309-125-320.5-328.5-131-320.5 141-117 381zm195 16q0-438 284-438 87 0 140 57 78 84 77.5 246t-59.5 249-149 87q-43 0-112-14.5t-114-44.5q-68-45-67-142z"/><glyph unicode="7" horiz-adv-x="921" d="M47 935q0 89 12 165h842v-123q-436-680-475-1251-23-6-59-7-105 0-156 33 33 203 192.5 557.5t356.5 624.5l-4 14-363-6q-137-4-184-8-16-2-27.5-29.5t-36.5-134.5l-94 10q-4 66-4 155z"/><glyph unicode="8" horiz-adv-x="1062" d="M66 305q0 199 198 332 55 33 78 33v18q-12 0-33 10-192 117-192 316 0 164 116.5 268t298.5 104q121 0 254-59 70-33 115-100.5t45-161.5q0-184-160-303-47-33-75-33v-18q12 0 32-11 123-63 188.5-141t65.5-194q0-170-132-276.5t-345-106.5q-143 0-282 55-76 31-124 100.5t-48 167.5zm171.5 32q.5-122 82-182.5t218-60.5 202 68.5 65.5 142.5-26.5 121-84.5 84q-88 57-219 108-14 6-20 9-35-12-97-64-121-104-120.5-226zm57.5 736q0-72 23.5-116t74.5-80q84-59 209-113 172 117 172 283 0 115-70.5 176t-184 61-169-69.5-55.5-141.5z"/><glyph unicode="9" horiz-adv-x="1056" d="M74 684q0 186 126 316t326.5 130 319.5-144 119-382q0-291-172-553-86-131-240-222t-352-110l-15 93q238 55 369 187t186 370l-16 6q-96-119-259-119t-277.5 121-114.5 307zm194 27.5q0-146.5 75-230.5t174-84 183 45q49 27 60 76 12 49 12 121 0 176-68.5 283.5t-209.5 107.5q-113 0-169.5-86t-56.5-232.5z"/><glyph unicode=":" horiz-adv-x="516" d="M133 101.5q0 56.5 34 93t89 36.5q127 0 127-122 0-54-35-90.5t-90-36.5-90 31.5-35 88zm0 768q0 56.5 34 93t89 36.5q127 0 127-122 0-54-35-90.5t-90-36.5-90 31.5-35 88z"/><glyph unicode=";" horiz-adv-x="516" d="M131-227q84 100 84 184 0 47-36 90t-36 85 34 70.5 85 28.5 88-44 37-124q0-184-201-344zm2 1096.5q0 56.5 34 93t89 36.5q127 0 127-122 0-54-35-90.5t-90-36.5-90 31.5-35 88z"/><glyph unicode="<" horiz-adv-x="1058" d="M53 461v102l951 471v-141l-791-381 791-379v-141z"/><glyph unicode="=" horiz-adv-x="954" d="M92 354v109h770v-109h-770zm0 281v108h770v-108h-770z"/><glyph unicode=">" horiz-adv-x="1058" d="M53-8v141l791 379-791 381v141l951-471v-102z"/><glyph unicode="?" horiz-adv-x="868" d="M72 1260q0 71 2 92 59 35 161.5 60.5t198.5 25.5q168 0 276.5-83t108.5-237q0-80-31.5-147.5t-80-110.5-104.5-86-103-74q-113-74-113-159 1-41 21-123l-97-29q-94 131-94 217 0 102 152 201 61 41 122.5 84t105.5 104.5 44 148.5-72.5 136-169 49-157.5-33q-16-8-24.5-38.5t-18.5-143.5l-111 12q-16 63-16 134zm178-1168q0 51 31.5 81t89.5 30q115 0 114-105 0-51-31.5-83.5t-84-32.5-86 29.5-33.5 80.5z"/><glyph unicode="@" horiz-adv-x="1628" d="M63 379q0 365 231.5 597t596.5 232q291 0 482.5-147.5t191.5-427.5q0-147-64.5-316.5t-185.5-289.5q-215-23-244-29-90 14-90 135 0 39 10 107l13 86-15 4q-129-326-338-326-221 0-221 330 0 256 129 427t320 171q88 0 204-39l82 20 39-24q-2-18-28-172-53-326-53.5-437.5t13-144.5 59.5-33 91 61.5 70 149.5q53 190 53 322 0 199-148.5 335t-400.5 136q-162 0-286.5-60.5t-196.5-162.5q-145-203-146-488 0-535 535-534 74 0 246 41 0-12 11-39t11-43l-18-25q-217-43-316-43-319 0-478 169t-159 458zm541-33q0-217 98-217 70 0 143 107.5t119 258 52 279.5q-106 53-193.5 53t-113.5-30q-43-53-74-190.5t-31-260.5z"/><glyph unicode="A" d="M14 82q78 20 95.5 32.5t33.5 55.5l459 1268h170l469-1301q10-31 121-51l-8-86h-477l-13 82q143 29 144 68 0 16-9 43l-90 266h-530l-105-291q-8-25-8-34t13-11l145-39-8-84h-387zm404 485h456l-200 576q-14 43-15 59h-20z"/><glyph unicode="B" horiz-adv-x="1267" d="M90 80q109 18 132.5 40.5t23.5 86.5v1005q0 63-23.5 86t-132.5 41l12 80h541q223 0 342-89t119-249q0-127-68.5-214t-146.5-111v-15q131-25 219-123t88-238-122-260-374-120h-598zm354 119q0-59 31-72 31-20 125-21 197 0 283 70t86 201q0 190-154 262-76 37-172 37h-199v-477zm0 585h115q168 0 247 73t79 200q0 254-303 254h-138v-527z"/><glyph unicode="C" horiz-adv-x="1269" d="M72 678q0 233 96 416 113 215 338 299 125 45 260 45t260-20.5 164-37.5q12-76 12-158.5t-4-185.5l-117-16q-45 238-80 262-18 14-95 30.5t-152 16.5q-225 0-340-166t-115-436q0-319 145.5-475t360.5-156q78 0 146.5 18.5t90 35 66.5 260.5l113-4q0-156-23-332-63-35-191-63.5t-262-28.5q-334 0-503.5 196.5t-169.5 499.5z"/><glyph unicode="D" horiz-adv-x="1460" d="M90 80q109 18 132.5 40.5t23.5 86.5v1005q0 63-23.5 86t-132.5 41l12 80h641q176 0 305.5-56t200.5-155q139-188 140-454 0-293-156-510-78-111-216-177.5t-319-66.5h-596zm354 110q0-45 43-53 138-28 213-28h5q227 0 341.5 161.5t114.5 431.5q0 170-44 295t-118 191q-139 123-303 123h-252v-1121z"/><glyph unicode="E" horiz-adv-x="1212" d="M90 80q109 18 132.5 40.5t23.5 86.5v1005q0 63-23.5 86t-132.5 41l12 80h955q12-76 12-150.5t-4-168.5l-117-15q-29 141-41 177t-28 38q-49 6-125 9l-310 6v-551h308q27 0 65 145l64-6q0-150 5-209t6-71.5 8-59.5 9-65l-73-13q-33 117-44.5 143.5t-25.5 26.5h-322v-551l183 2q231 0 282 25 6 4 9 4 35 10 90 242l112-10q2-35 2-124t-22-243h-998z"/><glyph unicode="F" horiz-adv-x="1118" d="M90 80q109 18 132.5 40.5t23.5 86.5v1005q0 63-23.5 86t-132.5 41l12 80h955q12-76 12-150.5t-4-168.5l-117-15q-29 141-41 177t-28 38q-49 6-125 9l-310 6v-570h316q51 0 90 146l63-6q0-150 5.5-209.5t6.5-71.5 8-59 9-66l-74-12q-49 170-94 170h-330v-479q0-49 41-54l207-24-8-80h-582z"/><glyph unicode="G" horiz-adv-x="1394" d="M72 678q0 233 96 416 113 215 338 299 125 45 260 45t260-20.5 164-37.5q12-76 12-158.5t-4-185.5l-117-16q-45 238-80 262-18 14-95 30.5t-152 16.5q-225 0-340-166t-115-436q0-319 145.5-475t360.5-156q113 0 199 33v285q0 63-24 85.5t-132 41.5l12 80h479l9-80-105-25q-41-8-41-53v-387q-68-35-195.5-64.5t-261.5-29.5q-334 0-503.5 196.5t-169.5 499.5z"/><glyph unicode="H" horiz-adv-x="1570" d="M90 80q109 18 132.5 40.5t23.5 86.5v1005q0 63-23.5 86t-132.5 41l12 80h502l8-80-127-24q-41-8-41-53v-469h682v419q0 63-23.5 86t-131.5 41l12 80h502l8-80-127-24q-41-8-41-53v-1104q0-45 41-54l127-24-8-80h-502l-12 80q109 18 132 40.5t23 86.5v463h-682v-512q0-45 41-54l127-24-8-80h-502z"/><glyph unicode="I" horiz-adv-x="690" d="M90 80q109 18 132.5 40.5t23.5 86.5v1005q0 63-23.5 86t-132.5 41l12 80h502l8-80-127-24q-41-8-41-53v-1104q0-45 41-54l127-24-8-80h-502z"/><glyph unicode="J" horiz-adv-x="688" d="M-49-155.5q0 46.5 39 108.5 96-23 135-23t65 17q59 41 60 377v888q0 61-32 84t-144 43l12 80h543l8-80-148-24q-40-8-40-41v-1012q0-186-105.5-346t-216.5-160q-88 0-170 17-6 25-6 71.5z"/><glyph unicode="K" horiz-adv-x="1335" d="M90 80q109 18 132.5 40.5t23.5 86.5v1005q0 63-23.5 86t-132.5 41l12 80h502l8-80-127-24q-41-8-41-53v-541l494 524q31 31 31 49 0 37-156 43l12 82h435l8-86q-74 0-125-51-6-6-19.5-20.5t-15.5-16.5l-455-483 494-598q33-41 73-59.5t115-24.5l-12-80h-311l-498 612-70-73v-381q0-45 41-54l113-24-8-80h-488z"/><glyph unicode="L" horiz-adv-x="1142" d="M90 80q109 18 132.5 40.5t23.5 86.5v1005q0 63-23.5 86t-132.5 41l12 80h502l8-80-127-24q-41-8-41-53v-1158l183 2q227 4 266 15 33 10 115 315l112-10q2-35 2-142.5t-22-283.5h-998z"/><glyph unicode="M" horiz-adv-x="1869" d="M76 80q111 20 140.5 42.5t29.5 84.5v1005q0 63-23.5 86t-132.5 41l12 80h430l394-1077q10-33 14-51h21q2 23 10 41l399 1087h371l8-80-86-24q-39-12-39-47v-1110q0-45 41-54l127-24-8-80h-506l-12 80q100 18 129.5 39.5t29.5 70.5v936q0 47 7 78h-17l-432-1163h-147l-437 1167h-16v-1003q0-49 19.5-74t70.5-33l100-18-8-80h-477z"/><glyph unicode="N" horiz-adv-x="1587" d="M90 80q109 18 132.5 40.5t23.5 86.5v1005q0 63-23.5 86t-132.5 41l12 80h392l700-1032h14v784q0 92-33.5 123t-162.5 45l12 80h481l8-80-127-24q-41-8-40-53v-1262h-127l-820 1212h-16v-1007q0-51 19.5-76t70.5-31l143-18-8-80h-506z"/><glyph unicode="O" horiz-adv-x="1456" d="M72 697.5q0 332.5 178 536.5t488.5 204 478-187.5 167.5-520.5-178-540.5-488-207.5-478 191.5-168 524zm227 10q0-263.5 114.5-440.5t331.5-177q111 0 194 51.5t130 141.5q88 174 88 438t-115.5 436-330.5 172q-111 0-194-50t-128-138q-90-170-90-433.5z"/><glyph unicode="P" horiz-adv-x="1144" d="M90 80q109 18 132.5 40.5t23.5 86.5v1005q0 63-23.5 86t-132.5 41l12 80h572q217 0 325.5-105.5t108.5-298-142.5-329.5-414.5-137h-107v-391q0-49 41-54l207-24-8-80h-582zm354 577h91q135 0 235 64 119 76 119 278 0 188-98 256-82 55-179 56h-127q-41 0-41-49v-605z"/><glyph unicode="Q" horiz-adv-x="1456" d="M72 707.5q0 322.5 178 526.5t488.5 204 478-187.5 167.5-505.5q0-272-111.5-462.5t-316.5-262.5v-8q39-14 141.5-89t149.5-75 127 31l47-74q-45-37-73-55-84-61-158-61t-146.5 44-127 97-130 101.5-147.5 54.5q-272 23-419.5 211t-147.5 510.5zm227 0q0-263.5 114.5-440.5t331.5-177q111 0 194 51.5t130 141.5q88 174 88 438t-115.5 436-330.5 172q-111 0-194-50t-128-138q-90-170-90-433.5z"/><glyph unicode="R" horiz-adv-x="1294" d="M90 80q109 18 132.5 40.5t23.5 86.5v1005q0 63-23.5 86t-132.5 41l12 80h570q219 0 325.5-90t106.5-243.5-84-267-236-165.5v-10q20-6 45-45l289-434q31-45 60.5-61.5t107.5-22.5l-12-80h-291l-405 623h-134v-465q0-45 41-54l113-24-8-80h-488zm354 647h113q162 0 245 70.5t83 259.5q0 254-277 254h-123q-41 0-41-49v-535z"/><glyph unicode="S" horiz-adv-x="1071" d="M72 187q0 92 24 223l117 6q16-147 27.5-190.5t29.5-57.5q35-25 114-48.5t177-23.5 164 59.5 66 159.5q0 156-177 254-45 23-139 63t-133 59.5-91 55-81 72.5q-72 88-72 215 0 186 138.5 295t359.5 109q168 0 315-56 7-53 7-133.5t-23-212.5l-119-14q-23 231-55 258-49 43-179 43t-202-52-72-153q0-57 22.5-102t82-84 94.5-55q51-27 143-66t143.5-67.5 110.5-75.5q115-96 115-278.5t-130-295-355-112.5q-121 0-241 29.5t-175 58.5q-6 25-6 117z"/><glyph unicode="T" horiz-adv-x="1181" d="M14 1179q0 89 19 240h1116q18-152 18-240.5t-2-119.5l-104-8q-35 199-62 231-8 10-26.5 18.5t-282.5 12.5v-1155q0-47 41-54l158-24-8-80h-564l-12 80q129 20 158 41.5t29 85.5v1106q-264-4-283-12.5t-29-18.5q-25-33-59-231l-105 8q-2 31-2 120z"/><glyph unicode="U" horiz-adv-x="1507" d="M80 1339l12 80h502l8-80-127-24q-41-8-41-53v-721q0-209 86-315.5t279.5-106.5 285 114.5 91.5 276.5v664q0 90-34 120.5t-163 44.5l12 80h482l8-80-127-24q-37-8-39-29-2-8-2-24v-736q0-252-137.5-398t-411.5-146q-528 0-528 528v702q0 63-24 86t-132 41z"/><glyph unicode="V" horiz-adv-x="1341" d="M6 1337l14 82h488l8-84-145-39q-14-2-14.5-11t8.5-34l315-927q18-51 18-70h21l319 911q29 80 29 105 0 39-149 67l12 82h403l8-86q-84-16-106.5-36.5t-42.5-77.5l-451-1237h-141l-457 1267q-16 43-38.5 56.5t-98.5 31.5z"/><glyph unicode="W" horiz-adv-x="1904" d="M-8 1337l14 82h457l8-84-115-39q-14-2-14-11t8-34l285-919q18-66 18-70h21l235 746-71 241q-6 25-13.5 37t-25.5 23q-25 12-84 28l14 82h432l8-84-145-39q-14-2-14-11t8-34l270-919q18-63 19-70h20l287 903q23 76 22 101 0 45-157 71l12 82h420l8-86q-84-18-108.5-38.5t-43.5-75.5l-409-1237h-148l-221 745q-10 31-10 53h-16q0-23-13-53l-248-745h-145l-428 1267q-14 43-36.5 56.5t-100.5 31.5z"/><glyph unicode="X" horiz-adv-x="1308" d="M29 82q84 23 111.5 35t52.5 49l362 532-367 551q-29 43-50 57.5t-89 30.5l14 82h488l8-84-137-37q-14-2-14-15t14-32l233-348q20-31 21-55h20l228 332q51 72 51 94t-26.5 34.5-98.5 28.5l12 82h400l8-86q-25-6-43.5-10t-33.5-11-23.5-10.5-18.5-15.5-13-15-14.5-20.5-15.5-23.5l-338-494 399-594q23-31 140-53l-9-86h-493l-12 82q94 18 107 32.5t13 31-14 38.5l-229 340q-20 31-21 62h-20l-283-414q-16-23-16-38t20-21l97-29-9-84h-397z"/><glyph unicode="Y" horiz-adv-x="1224" d="M10 1337l15 82h481l8-84-137-37q-14-2-14.5-12t14.5-35l235-452q20-35 21-60h20l228 441q43 82 43 100t-26 29.5-97 27.5l12 82h406l8-86q-90-18-125-39.5t-60-70.5l-323-635v-430q0-47 41-54l158-24-9-80h-563l-12 80q129 20 157.5 41.5t28.5 85.5v364l-368 678q-27 45-48.5 58.5t-93.5 29.5z"/><glyph unicode="Z" horiz-adv-x="1243" d="M72 0v53l780 1200q27 39 45 47l-4 15h-197q-281 0-366-12-31-3-84-259l-129 15q-4 86-4 173t18 187h1043v-53l-783-1200q-27-39-45-47l4-13h307q217 0 267 15 33 10 114 315l113-10q2-35 2-142.5t-23-283.5h-1058z"/><glyph unicode="[" horiz-adv-x="581" d="M143-336v1905h330v-109h-186v-1687h186v-109h-330z"/><glyph unicode="\" horiz-adv-x="800" d="M31 1581h141l598-1704h-143z"/><glyph unicode="]" horiz-adv-x="581" d="M109-227h186v1687h-186v109h329v-1905h-329v109z"/><glyph unicode="^" horiz-adv-x="1026" d="M49 664l371 755h158l399-755h-139l-340 641-310-641h-139z"/><glyph unicode="_" horiz-adv-x="880" d="M-12-150h905v-98h-905v98z"/><glyph unicode="`" horiz-adv-x="413" d="M0 1458v47l164 62 219-367-72-51z"/><glyph unicode="a" horiz-adv-x="1048" d="M86 252q0 154 131 229.5t426 77.5v66q0 266-192 266-92 0-116-26.5t-50-174.5l-111 12q-16 63-16 132t2 90q120 76 315 76h3q196 0 272.5-76t76.5-250v-471q0-53 26-75t130-42l-12-66-246-26q-20 0-43 39t-23 72.5 3 50.5l-17 6-24-37q-96-143-265-143-115 0-192.5 71.5t-77.5 198.5zm199 18q0-74 38.5-111.5t110.5-37.5 162 69q47 37 47 78v201q-184-4-271-49.5t-87-149.5z"/><glyph unicode="b" horiz-adv-x="1114" d="M14 1487l13 65q219 29 305 29l22-20v-576q0-113-14-160l16-6 21 27q119 154 283 154h2q166 0 272-132.5t106-364-121.5-376.5-351.5-145q-109 0-221.5 28.5t-175.5 59.5v1316q0 43-33 62.5t-123 38.5zm340-1315q88-74 222.5-74t181.5 56q37 41 60.5 130t23.5 197q0 182-65.5 276.5t-162 94.5-204.5-72q-35-23-45.5-41t-10.5-51v-516z"/><glyph unicode="c" horiz-adv-x="958" d="M70 469.5q0 207.5 98 357.5 51 80 150.5 126t246 46 289.5-57q2-16 2-105t-25-175l-114-13q-33 207-62 219-43 18-153 18-1 0-2 1-109 0-160-76-72-109-72-308.5t87-290.5 227.5-91 271.5 90l57-68q-165-162-389-162l-1 1q-224 0-337.5 140t-113.5 347.5z"/><glyph unicode="d" horiz-adv-x="1165" d="M74 475.5q0 229.5 120.5 376.5t337.5 147q150 0 222-53l14 6q-8 33-8 90v344q0 43-42 65t-151 36l13 65q219 29 342 29l22-20v-1360q0-53 25.5-75t130.5-42l-13-66-245-26q-20 0-45 41t-25 73.5 2 49.5l-16 6-21-27q-119-154-283-154l-2 1q-166 0-272 132t-106 361.5zm198 50q0-203.5 64.5-300t163-96.5 205.5 70q55 37 55 94v489q-84 100-262 101-88 0-140-58-86-96-86-299.5z"/><glyph unicode="e" horiz-adv-x="978" d="M70 480q0 216 131 367.5t346 151.5q348 0 364-428l-53-39-594-32q0-379 324-379 141 0 276 69l43-67q-68-55-176-98t-227-43q-207 0-320.5 141t-113.5 357zm200 114l424 37q20 2 21 39 0 90-48.5 155.5t-163 65.5-167-77-66.5-220z"/><glyph unicode="f" horiz-adv-x="716" d="M92 80q100 20 122 41.5t22 75.5v632h-134l-8 89 101 24q27 6 35 22.5t10 55.5 7 76 17 112.5 40 133 69 116.5q86 123 260 123 111 0 233-47 0-156-26-248l-109-10q-33 166-49 176-33 20-86 21-176 0-176-519h242l-17-96-225-31v-680q0-20 8-29t37-14l153-24-8-80h-506z"/><glyph unicode="g" horiz-adv-x="1134" d="M113-256q0 70 40 120t115 105q-116 37-116 156 0 82 61 158 43 53 98 96-31 14-57 35-102 82-102 246.5t112.5 251.5 280.5 87q150 0 248-63 133 63 258 68 20-35 20-83.5t-6-66.5q-70 16-145 16h-56q57-78 58-200 0-164-113-251t-281-87q-94 0-166 24-61-74-61-141 0-61 70-74 61-10 138-10t119-1 107.5-7 103.5-20.5 79-36.5q76-43 75-152 0-147-147.5-255t-396.5-108q-336 0-336 193zm157 69q0-73 62-116 61-43 209.5-43t230.5 61.5 82 123-67.5 74.5-214 15.5-244.5 22.5q-58-64-58-138zm70 852.5q0-233.5 203-233.5 190 0 190 233.5t-203 233.5q-190 0-190-233.5z"/><glyph unicode="h" horiz-adv-x="1220" d="M57 1487l13 65q219 29 305 29l22-20v-576q0-113-14-160l16-6 25 29q126 151 315 151h2q137 0 214-79.5t77-219.5v-553q0-25 11.5-31.5t29.5-11.5l101-24-9-80h-438l-12 80q92 18 112.5 40.5t20.5 76.5v442q0 98-36 155.5t-143.5 57.5-224.5-80q-27-18-37-35.5t-10-62.5v-527q0-25 11.5-31.5t29.5-11.5l90-24-8-80h-438l-12 80q100 20 121.5 41.5t21.5 75.5v1189q0 43-33 62.5t-123 38.5z"/><glyph unicode="i" horiz-adv-x="634" d="M72 885l12 65q219 29 305 29l23-21v-811q0-25 11-31.5t30-11.5l100-24-8-80h-449l-12 80q100 20 121.5 41.5t21.5 75.5v587q0 43-32.5 62.5t-122.5 38.5zm106 453.5q0 54.5 32 87t87 32.5q117 0 117-115 0-51-32-85.5t-84-34.5-86 30.5-34 85z"/><glyph unicode="j" horiz-adv-x="573" d="M-109-365q0 42 35 99 82-20 124-20 1-1 3-1 40 0 60 15 43 29 67.5 146.5t24.5 264.5v645q0 43-33 62.5t-123 38.5l12 65q219 29 306 29l22-21v-880q0-193-114.5-360t-221.5-167q-74 0-155 15-7 27-7 69zm265 1703.5q0 54.5 31.5 87t86.5 32.5q117 0 117-115 0-51-31.5-85.5t-84-34.5-86 30.5-33.5 85z"/><glyph unicode="k" horiz-adv-x="1165" d="M57 1487l13 65q219 29 305 29l22-20v-1088l353 330q16 18 16 35 0 31-141 51l12 80h407l9-80q-94-14-113-33l-281-268 297-424q33-41 73-59.5t116-24.5l-12-80h-285l-318 463-133-127v-189q0-25 11.5-31.5t29.5-11.5l90-24-8-80h-438l-12 80q100 20 121.5 41.5t21.5 75.5v1189q0 43-33 62.5t-123 38.5z"/><glyph unicode="l" horiz-adv-x="620" d="M57 1487l13 65q219 29 305 29l22-20v-1414q0-25 11.5-31.5t29.5-11.5l101-24-9-80h-448l-12 80q100 20 121.5 41.5t21.5 75.5v1189q0 43-33 62.5t-123 38.5z"/><glyph unicode="m" horiz-adv-x="1759" d="M72 903l12 66 264 26q14 0 29.5-56t15.5-101v-13l15-6 20 27q51 66 130 109.5t167 43.5q197 0 250-176l14-2 23 29q116 149 291 149h2q125 0 195.5-79.5t70.5-219.5v-553q0-25 11-31.5t30-11.5l100-24-8-80h-438l-13 80q92 18 112.5 40.5t20.5 76.5v465q0 190-153 190-80 0-201-80-25-14-33-31.5t-8-62.5v-531q0-25 11.5-31.5t29.5-11.5l90-24-8-80h-428l-12 80q92 18 112.5 40.5t20.5 76.5v465q0 190-154 190-80 0-200-80-25-14-33-31.5t-8-62.5v-531q0-25 11-31.5t30-11.5l90-24-8-80h-439l-12 80q100 20 121.5 41.5t21.5 75.5v589q0 53-25.5 75t-129.5 42z"/><glyph unicode="n" horiz-adv-x="1220" d="M72 903l12 66 264 26q14 0 29.5-57t15.5-100v-13l17-6 24 29q128 151 314 151h2q131 0 206.5-78.5t75.5-220.5v-553q0-25 11.5-31.5t29.5-11.5l101-24-9-80h-438l-12 80q92 18 112.5 40.5t20.5 76.5v442q0 96-35 154.5t-136.5 58.5-219.5-80l-27-18q-18-20-18-76v-528q0-23 7-31t34-15l90-24-8-80h-439l-12 80q100 20 121.5 41.5t21.5 75.5v589q0 53-25.5 75t-129.5 42z"/><glyph unicode="o" horiz-adv-x="1064" d="M66 479.5q0 235.5 125.5 377.5t348 142 341-132 118.5-367.5-125.5-376.5-348-141-341 131-118.5 366.5zm198 26.5q0-182 74-299t201-117 180 62q37 41 59.5 130t22.5 193q0 182-74 299t-201 117-180-62q-37-41-59.5-130t-22.5-193z"/><glyph unicode="p" horiz-adv-x="1140" d="M41 903l12 66q249 27 266 27h1q12-1 29.5-55t17.5-95v-21l16-6 20 27q119 154 284 154h1q166-1 272.5-133t106.5-361.5-121-376.5-338-147q-154 0-221 53l-14-6q8-45 8-90v-222q0-27 11-34t30-9l186-24-8-80h-534l-13 80q100 20 122 42t22 75v1019q0 53-26 75t-130 42zm340-704q84-100 262-101 88 0 139 58 86 96 86 299.5t-64.5 300-162.5 96.5-205-70q-55-37-55-94v-489z"/><glyph unicode="q" horiz-adv-x="1112" d="M74 477.5q0 231.5 121.5 376.5t351.5 145q109 0 221.5-28.5t175.5-59.5v-1194q0-25 11.5-32t29.5-11l100-24-8-80h-532l-13 80q147 18 187.5 44.5t40.5 82.5v219q0 113 14 160l-16 6-21-27q-119-154-283-154-1 0-2 1-165 0-271.5 132t-106.5 363.5zm198 22.5q0-182 65.5-276.5t162-94.5 205.5 72q35 23 45 41t10 51v516q-88 74-222.5 74t-181.5-56q-37-41-60.5-130t-23.5-197z"/><glyph unicode="r" horiz-adv-x="884" d="M57 903l13 66 278 26q14 0 30.5-41t16.5-85-8-101l16-6 27 59q37 82 111.5 130t151.5 48 143-32q0-168-31-336l-100-10q-16 172-33 195.5t-54.5 23.5-89-34-84-72-32.5-124v-463q0-27 11-34t30-9l186-24-8-80h-549l-12 80q109 18 133 40.5t24 76.5v589q0 53-27.5 77t-142.5 40z"/><glyph unicode="s" horiz-adv-x="894" d="M113 139.5q0 81.5 18 177.5l107 9q14-131 21-161t22-38q66-37 172-37 165 0 165 131 0 65-49 107-55 45-127 75-188 78-256.5 142.5t-68.5 179.5 104.5 194.5 252 79.5 269.5-51q2-16 2-92t-26-160l-94-10q-14 160-46 182.5t-120 22.5q-180 0-180-123 0-49 24.5-72.5t35.5-35 44-28 46-23.5 54-23q172-72 242-135.5t70-180-103.5-202.5-283.5-86q-80 0-166 16t-125 33q-4 27-4 108.5z"/><glyph unicode="t" horiz-adv-x="716" d="M33 932l100 24q39 10 52.5 46t47.5 229l125 12v-274h285l-16-97-269-30v-500q0-213 131-213 74 0 156 61l43-59q-110-149-268-149h-2q-115 0-179.5 80t-64.5 219v563h-133z"/><glyph unicode="u" horiz-adv-x="1181" d="M33 895l12 66q212 28 299 28h6l23-20v-627q0-213 162-213 104 0 217 80 27 18 35 35.5t8 58.5v492q0 43-33 62.5t-123 37.5l12 66q212 28 299 28h6l23-20v-766q0-53 25.5-75t130.5-42l-13-66-264-28h-1q-15 0-29 54-16 56-15 97v13l-16 6-25-29q-128-151-313-151h-2q-125 0-197 66.5t-72 205.5v541q0 43-32.5 62.5t-122.5 37.5z"/><glyph unicode="v" horiz-adv-x="1015" d="M0 889l12 80h422l8-80-125-31q-14-2-14-16 0-2 8-27l185-516q25-72 24-113h17l227 582q12 33 12 54.5t-29.5 35.5-105.5 31l12 80h365l8-80q-66-16-80-21.5t-16-13.5l-365-872h-133l-323 833q-14 39-28.5 49t-80.5 25z"/><glyph unicode="w" horiz-adv-x="1544" d="M16 889l13 80h379l8-80-90-29q-14-2-15-14 0-2 8-27l189-590q8-20 8-49v-8h16q0 23 17 61l186 465-39 117q-12 37-25.5 48t-64.5 26l12 80h336l9-80-91-29q-14-2-14-14 0-2 8-27l187-590q8-25 8-49v-8h16q0 12 17 61l186 535q12 33 12 44t-1 16.5-5 10.5-7 8-10 7-12.5 7-15.5 7-17 6.5-19.5 7.5-20.5 7l12 80h336l8-80q-66-16-80-21.5t-16-13.5l-340-872h-133l-168 516q-10 31-10 55h-17q0-23-12-53l-207-518h-133l-297 833q-14 39-28.5 49t-82.5 25z"/><glyph unicode="x" horiz-adv-x="1134" d="M25 80q104 16 116 29l322 376-293 351q-16 20-41 28l-74 25 8 80h406l12-80-63-15q-27-8-27-23t31-52l162-195 159 199q14 16 15 33 0 35-92 53l12 80h381l8-80q-94-14-113-33l-292-346 315-377q16-20 41-29l74-24-9-80h-405l-12 80 63 14q27 8 27 23.5t-31 52.5l-188 225-189-229q-14-16-14-33 0-35 92-53l-12-80h-381z"/><glyph unicode="y" horiz-adv-x="1024" d="M8 889l12 80h422l9-80-125-31q-14-2-15-16 0-2 8-27l209-547q10-29 11-63h16l217 563q12 33 12 54.5t-29.5 35.5-105.5 31l13 80h364l8-80q-90-20-96-35l-324-803q-41-102-65.5-156.5t-67.5-122-90-104.5q-117-88-282-117-53 53-54 168 0 12 4 41 49-6 136.5-6t138.5 21.5 123 224.5l-340 815q-16 39-29.5 49t-79.5 25z"/><glyph unicode="z" horiz-adv-x="907" d="M57 0v53l518 750q33 41 46 47l-5 14h-233q-80 0-135-6-14-2-24.5-29.5t-39.5-142.5l-94 10q-4 66-4 131.5t12 141.5h750v-58l-512-745q-27-39-45-47l4-15 100 2q219 4 258 13.5t84 204.5l107-9q-4-164-23-315h-764z"/><glyph unicode="{" horiz-adv-x="661" d="M61 578v77q88 35 125 73t37 126l-20 481q0 106 61.5 170t157.5 64q29 0 131-8v-88q-96-10-141-40t-45-116v-518q0-139-121-174l-23-7v-4l23-6q84-20 106-84 14-31 15-90v-518q0-86 45-115.5t141-40.5v-88q-102-8-131-8-96 0-157.5 64t-61.5 170l20 481q0 88-36.5 126t-125.5 73z"/><glyph unicode="|" horiz-adv-x="522" d="M195-430v2011h133v-2011h-133z"/><glyph unicode="}" horiz-adv-x="661" d="M109-240q96 10 141 40t45 116v518q0 59 14 90 23 63 107 84l22 6v4l-22 7q-121 35-121 174v518q0 86-45 115.5t-141 40.5v88q102 8 131 8 96 0 157.5-64t61.5-170l-21-481q0-88 37-126t125-73v-77q-88-35-125-73t-37-126l21-481q0-106-61.5-170t-157.5-64q-29 0-131 8v88z"/><glyph unicode="~" horiz-adv-x="993" d="M61 481q68 115 116 160t97.5 45 83-10 252.5-92q57-20 93-20.5t65 15 45 32 51 53.5l72-50q-57-88-92-131-59-74-129-73-37 0-74 11t-141.5 50-139 50-71.5 11q-66 0-156-100z"/><glyph unicode="¡" horiz-adv-x="462" d="M96-412l107 1039 102-4 27-1012-211-62zm49 1307q0 47 32 80t84 33 86-29 34-80-32-82-87-31q-117 0-117 109z"/><glyph unicode="¢" horiz-adv-x="868" d="M70 689.5q0 154.5 76.5 270t252.5 148.5v260h117v-250q139 0 252-47 2-12 2-87t-20-142l-88-11q-20 111-28.5 140.5t-21.5 34.5q-29 8-96 12v-615h12q127 0 240 76l53-61q-133-119-305-133v-285h-117v289q-162 25-245.5 135.5t-83.5 265zm184 21.5q0-207 145-277v576q-41-8-69-43-76-92-76-256z"/><glyph unicode="£" horiz-adv-x="1067" d="M33 643v109h151q-10 66-10 127 0 272 144.5 415.5t379.5 143.5q111 0 250-52 2-16 2-91.5t-26-159.5l-95-11q-12 154-34 172-33 33-133 33-147 0-204-98t-57-332q0-74 7-147h395v-109h-389q2-25 2-70 0-229-113-366l6-10q59 41 139 41t209-37 164-37q66 0 150 84l71-47q-51-94-88-140-68-80-180-79-68 0-204 44t-207.5 44-115.5-14.5-66.5-28-69.5-47.5l-52 67q74 82 113 153.5t46 112.5 7 114-22 216h-170z"/><glyph unicode="¤" horiz-adv-x="1234" d="M72 229l186 187q-86 100-86 264t80 272l-178 181 94 92 180-183q115 74 279 74t266-65l174 174 96-95-172-169q74-98 74-263.5t-96-273.5l194-197-94-92-207 205q-109-57-252-57t-245 51l-199-199zm299 496.5q0-154.5 68.5-244.5t188.5-90 175 55q63 72 63 226.5t-68.5 245-188.5 90.5-175-56q-63-72-63-226.5z"/><glyph unicode="¥" horiz-adv-x="1216" d="M29 1337l14 82h481l8-84-137-37q-14-2-14-12t14-35l213-411q20-35 21-60h20l207 400q43 82 43 100t-25.5 29.5-97.5 27.5l12 82h406l8-86q-90-18-125-39.5t-59-70.5l-242-471h223v-109h-770v109h211l-270 497q-27 45-48.5 58.5t-92.5 29.5zm200-944v109h770v-109h-284v-235q0-47 41-54l157-24-8-80h-563l-12 80q129 20 157.5 41.5t28.5 85.5v186h-287z"/><glyph unicode="¦" horiz-adv-x="522" d="M195 426h133v-856h-133v856zm0 301v854h133v-854h-133z"/><glyph unicode="§" horiz-adv-x="894" d="M51 573q0 168 213 301-141 106-141 279 0 117 99.5 201t257 84 272.5-49q4-27 4-109t-19-178l-106-8q-10 190-41 209-43 27-127 26.5t-131-27-47-107.5 44-136 128-101l125-67q16-10 65-35t70.5-37 58.5-39.5 55-50.5q45-63 46-139 0-164-209-299 127-90 127-226.5t-110-222.5-298-86q-80 0-166 16.5t-125 32.5q-4 27-4 130.5t19 156.5l106 8q14-135 20.5-162.5t22.5-35.5q66-37 172-37 186 0 186 133 0 80-52 131t-154 107l-66 36q-16 10-65.5 35t-71 37-58 40-53.5 50q-47 63-47 139zm162 56q0-78 117-146 81-45 110-59l138-76q137 104 137 187 0 57-51 96t-106.5 68.5-70.5 37.5l-137 78q-137-106-137-186z"/><glyph unicode="¨" horiz-adv-x="630" d="M10 1343q0 45 30 78t77 33q109 0 108-111 0-47-30.5-80.5t-77.5-33.5q-106 0-107 114zm396 0q0 45 29.5 78t76.5 33q109 0 109-111 0-47-31-80.5t-78-33.5q-106 0-106 114z"/><glyph unicode="©" horiz-adv-x="1722" d="M92 697.5q0 332.5 211 536.5t579.5 204 568.5-187.5 200-520.5-211-540.5-579.5-207.5-568.5 191.5-200 524zm199 10q0-263.5 154.5-440.5t443.5-177q152 0 264.5 51.5t175.5 141.5q123 174 123 437t-154.5 436-443.5 173q-152 0-264.5-50t-175.5-138q-123-170-123-433.5zm151 5.5q0 174 107 315 55 70 151.5 113t228.5 43 294-105v-45q0-117-19-194l-139-13q-23 193-27 199-41 49-131 49-133 0-199.5-98t-66.5-272.5 91-268.5 208-94q37 0 72 9t39 22q20 20 36 170l121-8q20-66 20.5-135.5t-1.5-86.5q-33-29-127-54.5t-154-25.5q-270 0-387 132.5t-117 347.5z"/><glyph unicode="ª" horiz-adv-x="774" d="M59 465v108h676v-108h-676zm13 436q0 217 385 221v43q0 180-117 181-57 0-72-19-14-25-28-127l-103 8q-14 49-14 100.5t2 73.5q88 55 232.5 55.5t200.5-53 56-180.5v-340q0-37 18.5-52t94.5-30l-8-61-180-19q-14 0-30.5 30t-16.5 63v28l-11 4-18-26q-72-109-195-109-84 0-140 52.5t-56 156.5zm168 8q0-100 84-100 49 0 104 45 29 26 29 53v137q-113-4-165-34.5t-52-100.5z"/><glyph unicode="«" horiz-adv-x="942" d="M123 500v32l334 349 43-33-215-332 215-356-43-33zm360 0v32l334 349 43-33-215-332 215-356-43-33z"/><glyph unicode="¬" horiz-adv-x="1056" d="M92 686v109h873v-459h-117v350h-756z"/><glyph unicode="­" horiz-adv-x="604" d="M70 416l24 151 447 29-33-127z"/><glyph unicode="®" horiz-adv-x="1722" d="M92 697.5q0 332.5 211 536.5t579.5 204 568.5-187.5 200-520.5-211-540.5-579.5-207.5-568.5 191.5-200 524zm199 10q0-263.5 154.5-440.5t443.5-177q152 0 264.5 51.5t175.5 141.5q123 174 123 437t-154.5 436-443.5 173q-152 0-264.5-50t-175.5-138q-123-170-123-433.5zm215 390.5l8 73h395q299 0 299-215 0-76-56-153.5t-155-116.5v-8q12-2 33-29l164-266q27-43 88-53l-8-76h-203l-225 389h-78v-266q0-27 27-33l71-14-4-76h-344l-8 76q47 12 63.5 26.5t16.5 49.5v616q0 37-13.5 50t-70.5 26zm262-357h45q100 0 151.5 41t51.5 148q0 147-172 147h-51q-25 0-25-26v-310z"/><glyph unicode="¯" horiz-adv-x="774" d="M45 1315v123h510v-123h-510z"/><glyph unicode="°" horiz-adv-x="747" d="M92 1159q0 127 76 203t209 76 204.5-71 71.5-197-76.5-202.5-208.5-76.5-204 70.5-72 197.5zm117 0q0-78 41-121t118.5-43 123 48.5 45.5 126-41 120.5-119 43-123-48-45-126z"/><glyph unicode="±" horiz-adv-x="954" d="M92-2v108h770v-108h-770zm0 629v108h334v342h102v-342h334v-108h-334v-351h-102v351h-334z"/><glyph unicode="²" horiz-adv-x="675" d="M16 891v86q211 168 314.5 297t103.5 235q0 68-43 114t-124 46-109-33q-23-23-31-139l-90 8q-12 59-12 110.5t2 65.5q43 33 120.5 52.5t143.5 19.5q160 0 245-68.5t85-183.5-102.5-229.5-342.5-284.5l2-10 125 4q168 4 176 8 25 4 53 125l82-4v-39q0-111-20-180h-578z"/><glyph unicode="³" horiz-adv-x="641" d="M2 905q15 131 23 182l90 7q6-115 26-121 37-12 106.5-12t118 44 48.5 115q0 176-176 176-20 0-70-4l4 74q111 16 162 68.5t51 112-38 93-99.5 33.5-86-17.5-34.5-139.5l-88 8q-12 66-12 110.5t2 61.5q102 57 235 57t211-48 78-123-47-131-111-81l2-10q82-12 141.5-69.5t59.5-154-103.5-177-255-80.5-237.5 26z"/><glyph unicode="´" horiz-adv-x="405" d="M25 1200l219 367 164-62v-47l-312-309z"/><glyph unicode="µ" horiz-adv-x="1181" d="M33 895l12 66q219 29 305 28l23-20v-627q0-213 162-213 104 0 217 80 27 18 35 35.5t8 58.5v492q0 43-33 62.5t-123 37.5l12 66q219 29 305 28l23-20v-774q0-53 25.5-75t130.5-42l-13-66-264-26q-14-2-29.5 56t-15.5 101v13l-16 6-25-29q-129-151-315-151-86 0-127 24l-15-12 70-369-166-82-31 35v1217q0 43-32.5 62.5t-122.5 37.5z"/><glyph unicode="¶" horiz-adv-x="1222" d="M133 1022q0 184 105.5 290.5t308.5 106.5h590l8-80-127-24q-41-8-41-53v-1000q0-186-97.5-346t-191.5-160-176 17q-6 25-6 71.5t39 108.5q96-23 135-23t72.5 21.5 45 115 11.5 257.5v987h-96v-1241q-66-12-146-13l-22 21v491q-197 6-304.5 137.5t-107.5 315.5z"/><glyph unicode="·" horiz-adv-x="491" d="M113 523.5q0 60.5 36.5 99.5t95 39 96.5-32 38-93.5-38-101.5-96.5-40-95 34-36.5 94.5z"/><glyph unicode="¸" horiz-adv-x="993" d="M420-182l78 264 100-27-43-153q33 6 72 6 66 0 111.5-35t45.5-96q0-86-95-149.5t-259-71.5l-8 63q195 27 194 119 0 33-24.5 55.5t-70.5 22.5-83-21z"/><glyph unicode="¹" horiz-adv-x="546" d="M68 1700q154 53 272 53l16-14v-752q0-10 9.5-12t17.5-4l102-17-6-63h-395l-8 63q78 12 104.5 27.5t26.5 44.5v528q0 63-6 75.5t-46 12.5-77-6z"/><glyph unicode="º" horiz-adv-x="786" d="M51 1058q0 173 92.5 276.5t254 103.5 249.5-97.5 88-268.5-92-275.5-255-104.5-250 96.5-87 269.5zm4-593v108h676v-108h-676zm162 626q0-143 48-225t131-82 120 45q51 66 51 209.5t-48 224-131 80.5-116-43q-55-66-55-209z"/><glyph unicode="»" horiz-adv-x="942" d="M82 160l215 356-215 332 43 33 334-349v-32l-334-373zm360 0l215 356-215 332 43 33 334-349v-32l-334-373z"/><glyph unicode="¼" horiz-adv-x="1730" d="M150 1378q154 53 272 54l16-15v-749q0-12 9.5-14.5t17.5-4.5l102-16-6-64h-395l-8 64q78 12 104.5 27.5t26.5 44.5v528q0 63-6.5 75.5t-46 12.5-76.5-6zm186-1378l915 1419h133l-913-1419h-135zm575 317l414 529q94 16 143 16l15-12v-522l137-2-12-103h-125v-117q0-23 26-26l76-17-4-63h-369l-8 63q78 12 103.5 26.5t25.5 45.5v88h-391zm121 25l4-8 297-6v348q0 27 4 39l-8 4-274-348q-13-19-23-29z"/><glyph unicode="½" horiz-adv-x="1843" d="M150 1378q154 53 272 54l16-15v-749q0-12 9.5-14.5t17.5-4.5l102-16-6-64h-395l-8 64q78 12 104.5 27.5t26.5 44.5v528q0 63-6.5 75.5t-46 12.5-76.5-6zm186-1378l915 1419h133l-913-1419h-135zm766 0v86q211 168 314.5 297t103.5 235q0 68-43 114t-124 46-110-33q-23-23-31-139l-90 8q-12 57-12 109.5t2 67.5q43 33 121 52t143 19q160 0 245-68.5t85-183-102.5-229.5-341.5-285l2-10 125 4q168 4 176 8 25 4 53 125l82-4v-39q0-111-21-180h-577z"/><glyph unicode="¾" horiz-adv-x="1730" d="M84 584q14 131 22 182l91 6q6-115 26-121 37-12 106.5-12t118 44 48.5 116q0 176-177 176-20 0-69-4l4 73q111 16 162 68.5t51 112-38 93.5-99.5 34-86-17.5-34.5-140.5l-88 8q-12 66-12 111t2 61q102 57 235 57.5t211-48 78-123-47-131-111-80.5l2-11q82-12 141.5-69.5t59.5-153.5-103.5-177-255-81-237.5 27zm252-584l915 1419h133l-913-1419h-135zm575 317l414 529q94 16 143 16l15-12v-522l137-2-12-103h-125v-117q0-23 26-26l76-17-4-63h-369l-8 63q78 12 103.5 26.5t25.5 45.5v88h-391zm121 25l4-8 297-6v348q0 27 4 39l-8 4-274-348q-13-19-23-29z"/><glyph unicode="¿" horiz-adv-x="868" d="M49-129q0 80 32 147.5t80 110.5 104.5 86 103.5 76q113 72 112 158 0 40-20 122l96 29q94-131 94-217 0-102-151-201-61-41-123-84t-106-104.5-44-148.5 73-136 169-49 158 33q16 8 24 38.5t19 143.5l110-12q16-63 16.5-134t-1.5-91q-59-35-162-61t-199-26q-168 0-276.5 83t-108.5 237zm334 1020q0 51 31.5 84t84 33 86-30 33.5-81-31.5-81-88.5-30q-115 0-115 105z"/><glyph unicode="À" d="M14 82q78 20 95.5 32.5t33.5 55.5l459 1268h170l469-1301q10-31 121-51l-8-86h-477l-13 82q143 29 144 68 0 16-9 43l-90 266h-530l-105-291q-8-25-8-34t13-11l145-39-8-84h-387zm334 1685l123 105 356-264-51-74-411 190zm70-1200h456l-200 576q-14 43-15 59h-20z"/><glyph unicode="Á" d="M14 82q78 20 95.5 32.5t33.5 55.5l459 1268h170l469-1301q10-31 121-51l-8-86h-477l-13 82q143 29 144 68 0 16-9 43l-90 266h-530l-105-291q-8-25-8-34t13-11l145-39-8-84h-387zm404 485h456l-200 576q-14 43-15 59h-20zm135 1041l356 264 123-105-16-43-412-190z"/><glyph unicode="Â" d="M14 82q78 20 95.5 32.5t33.5 55.5l459 1268h170l469-1301q10-31 121-51l-8-86h-477l-13 82q143 29 144 68 0 16-9 43l-90 266h-530l-105-291q-8-25-8-34t13-11l145-39-8-84h-387zm340 1505l279 285h115l278-285-51-53-285 186-284-186zm64-1020h456l-200 576q-14 43-15 59h-20z"/><glyph unicode="Ã" d="M14 82q78 20 95.5 32.5t33.5 55.5l459 1268h170l469-1301q10-31 121-51l-8-86h-477l-13 82q143 29 144 68 0 16-9 43l-90 266h-530l-105-291q-8-25-8-34t13-11l145-39-8-84h-387zm308 1530q66 109 112.5 152.5t93.5 43.5 179.5-27.5 183.5-27.5 119 72l51-25q-43-94-87-150.5t-90-56.5-182.5 28-185.5 28q-78 0-147-70zm96-1045h456l-200 576q-14 43-15 59h-20z"/><glyph unicode="Ä" d="M14 82q78 20 95.5 32.5t33.5 55.5l459 1268h170l469-1301q10-31 121-51l-8-86h-477l-13 82q143 29 144 68 0 16-9 43l-90 266h-530l-105-291q-8-25-8-34t13-11l145-39-8-84h-387zm371 1620q0 45 29.5 77.5t77.5 32.5q109 0 108-110 0-47-30.5-81t-77.5-34q-106 0-107 115zm33-1135h456l-200 576q-14 43-15 59h-20zm362 1135q0 45 30 77.5t77 32.5q109 0 108-110 0-47-30.5-81t-77.5-34q-106 0-107 115z"/><glyph unicode="Å" d="M14 82q78 20 95.5 32.5t33.5 55.5l459 1268h170l469-1301q10-31 121-51l-8-86h-477l-13 82q143 29 144 68 0 16-9 43l-90 266h-530l-105-291q-8-25-8-34t13-11l145-39-8-84h-387zm404 485h456l-200 576q-14 43-15 59h-20zm80 1127q0 84 60 136t144 52 141.5-49 57.5-131-60.5-135.5-145.5-53.5-141 48.5-56 132.5zm100 0q0-43 26.5-67.5t70.5-24.5 74 28.5 30 71.5-27 67.5-67 24.5q-106 0-107-100z"/><glyph unicode="Æ" horiz-adv-x="1802" d="M29 82q70 18 86 29.5t43 58.5l614 1071q12 20 12 35 0 41-125 63l13 80h1018q12-76 12-150.5t-4-168.5l-117-15q-29 141-41 177t-29 38q-49 6-125 9l-311 6v-551h309q27 0 66 145l63-6q0-150 5.5-209t6.5-71.5 8-59.5 9-65l-74-13q-33 117-44 143.5t-25 26.5h-324v-551l174 2q266 4 301 29 20 14 86 240l113-8q2-27 2-121t-22-246h-996l-12 80q109 18 132.5 40.5t23.5 86.5v448h-314l-274-477q-18-33-18.5-42t22.5-15l139-37-8-84h-381zm596 682h252v438h-13z"/><glyph unicode="Ç" horiz-adv-x="1269" d="M72 678q0 233 96 416 113 215 338 299 125 45 260 45t260-20.5 164-37.5q12-76 12-158.5t-4-185.5l-117-16q-45 238-80 262-18 14-95 30.5t-152 16.5q-225 0-340-166t-115-436q0-319 145.5-475t360.5-156q78 0 146.5 18.5t90 35 66.5 260.5l113-4q0-156-23-332-63-35-190-64-125-29-254-28l-23-80q33 6 72 6 66 0 112-35t46-96q0-86-95.5-149.5t-259.5-71.5l-8 63q90 10 142.5 42t52.5 71-25 61.5-71 22.5-83-21l-18 23 49 168q-260 27-403 192-170 197-170 500z"/><glyph unicode="È" horiz-adv-x="1212" d="M90 80q109 18 132.5 40.5t23.5 86.5v1005q0 63-23.5 86t-132.5 41l12 80h955q12-76 12-150.5t-4-168.5l-117-15q-29 141-41 177t-28 38q-49 6-125 9l-310 6v-551h308q27 0 65 145l64-6q0-150 5-209t6-71.5 8-59.5 9-65l-73-13q-33 117-44.5 143.5t-25.5 26.5h-322v-551l183 2q231 0 282 25 6 4 9 4 35 10 90 242l112-10q2-35 2-124t-22-243h-998zm164 1687l123 105 356-264-51-74-412 190z"/><glyph unicode="É" horiz-adv-x="1212" d="M90 80q109 18 132.5 40.5t23.5 86.5v1005q0 63-23.5 86t-132.5 41l12 80h955q12-76 12-150.5t-4-168.5l-117-15q-29 141-41 177t-28 38q-49 6-125 9l-310 6v-551h308q27 0 65 145l64-6q0-150 5-209t6-71.5 8-59.5 9-65l-73-13q-33 117-44.5 143.5t-25.5 26.5h-322v-551l183 2q231 0 282 25 6 4 9 4 35 10 90 242l112-10q2-35 2-124t-22-243h-998zm328 1528l356 264 123-105-16-43-412-190z"/><glyph unicode="Ê" horiz-adv-x="1212" d="M90 80q109 18 132.5 40.5t23.5 86.5v1005q0 63-23.5 86t-132.5 41l12 80h955q12-76 12-150.5t-4-168.5l-117-15q-29 141-41 177t-28 38q-49 6-125 9l-310 6v-551h308q27 0 65 145l64-6q0-150 5-209t6-71.5 8-59.5 9-65l-73-13q-33 117-44.5 143.5t-25.5 26.5h-322v-551l183 2q231 0 282 25 6 4 9 4 35 10 90 242l112-10q2-35 2-124t-22-243h-998zm170 1507l279 285h114l279-285-51-53-285 186-285-186z"/><glyph unicode="Ë" horiz-adv-x="1212" d="M90 80q109 18 132.5 40.5t23.5 86.5v1005q0 63-23.5 86t-132.5 41l12 80h955q12-76 12-150.5t-4-168.5l-117-15q-29 141-41 177t-28 38q-49 6-125 9l-310 6v-551h308q27 0 65 145l64-6q0-150 5-209t6-71.5 8-59.5 9-65l-73-13q-33 117-44.5 143.5t-25.5 26.5h-322v-551l183 2q231 0 282 25 6 4 9 4 35 10 90 242l112-10q2-35 2-124t-22-243h-998zm203 1622q0 45 29.5 77.5t76.5 32.5q109 0 109-110 0-47-31-81t-78-34q-106 0-106 115zm395 0q0 45 30 77.5t77 32.5q109 0 108-110 0-47-30.5-81t-77.5-34q-106 0-107 115z"/><glyph unicode="Ì" horiz-adv-x="690" d="M14 1767l123 105 357-264-52-74-411 190zm76-1687q109 18 132.5 40.5t23.5 86.5v1005q0 63-23.5 86t-132.5 41l12 80h502l8-80-127-24q-41-8-41-53v-1104q0-45 41-54l127-24-8-80h-502z"/><glyph unicode="Í" horiz-adv-x="690" d="M90 80q109 18 132.5 40.5t23.5 86.5v1005q0 63-23.5 86t-132.5 41l12 80h502l8-80-127-24q-41-8-41-53v-1104q0-45 41-54l127-24-8-80h-502zm70 1528l356 264 123-105-16-43-412-190z"/><glyph unicode="Î" horiz-adv-x="690" d="M8 1587l279 285h114l279-285-51-53-285 186-285-186zm82-1507q109 18 132.5 40.5t23.5 86.5v1005q0 63-23.5 86t-132.5 41l12 80h502l8-80-127-24q-41-8-41-53v-1104q0-45 41-54l127-24-8-80h-502z"/><glyph unicode="Ï" horiz-adv-x="690" d="M39 1702q0 45 29.5 77.5t76.5 32.5q109 0 109-110 0-47-31-81t-78-34q-106 0-106 115zm51-1622q109 18 132.5 40.5t23.5 86.5v1005q0 63-23.5 86t-132.5 41l12 80h502l8-80-127-24q-41-8-41-53v-1104q0-45 41-54l127-24-8-80h-502zm344 1622q0 45 30 77.5t77 32.5q109 0 108-110 0-47-30.5-81t-77.5-34q-106 0-107 115z"/><glyph unicode="Ð" horiz-adv-x="1460" d="M55 692v123h191v397q0 63-23.5 86t-132.5 41l12 80h641q176 0 305.5-56t200.5-155q139-188 140-454 0-293-156-510-78-111-216-177.5t-319-66.5h-596l-12 80q109 18 132.5 40.5t23.5 86.5v485h-191zm389-502q0-45 43-53 143-29 218-28 227 0 341.5 161.5t114.5 431.5q0 170-44 295t-118 191q-139 123-303 123h-252v-496h342v-123h-342v-502z"/><glyph unicode="Ñ" horiz-adv-x="1587" d="M90 80q109 18 132.5 40.5t23.5 86.5v1005q0 63-23.5 86t-132.5 41l12 80h392l700-1032h14v784q0 92-33.5 123t-162.5 45l12 80h481l8-80-127-24q-41-8-40-53v-1262h-127l-820 1212h-16v-1007q0-51 19.5-76t70.5-31l143-18-8-80h-506zm348 1532q66 109 113 152.5t94 43.5 179-27.5 183-27.5 119 72l52-25q-43-94-87-150.5t-90.5-56.5-182.5 28-185 28q-78 0-148-70z"/><glyph unicode="Ò" horiz-adv-x="1456" d="M72 697.5q0 332.5 178 536.5t488.5 204 478-187.5 167.5-520.5-178-540.5-488-207.5-478 191.5-168 524zm227 10q0-263.5 114.5-440.5t331.5-177q111 0 194 51.5t130 141.5q88 174 88 438t-115.5 436-330.5 172q-111 0-194-50t-128-138q-90-170-90-433.5zm147 1059.5l123 105 357-264-52-74-411 190z"/><glyph unicode="Ó" horiz-adv-x="1456" d="M72 697.5q0 332.5 178 536.5t488.5 204 478-187.5 167.5-520.5-178-540.5-488-207.5-478 191.5-168 524zm227 10q0-263.5 114.5-440.5t331.5-177q111 0 194 51.5t130 141.5q88 174 88 438t-115.5 436-330.5 172q-111 0-194-50t-128-138q-90-170-90-433.5zm240 900.5l356 264 123-105-17-43-411-190z"/><glyph unicode="Ô" horiz-adv-x="1456" d="M72 697.5q0 332.5 178 536.5t488.5 204 478-187.5 167.5-520.5-178-540.5-488-207.5-478 191.5-168 524zm227 10q0-263.5 114.5-440.5t331.5-177q111 0 194 51.5t130 141.5q88 174 88 438t-115.5 436-330.5 172q-111 0-194-50t-128-138q-90-170-90-433.5zm92 879.5l279 285h114l279-285-51-53-285 186-285-186z"/><glyph unicode="Õ" horiz-adv-x="1456" d="M72 697.5q0 332.5 178 536.5t488.5 204 478-187.5 167.5-520.5-178-540.5-488-207.5-478 191.5-168 524zm227 10q0-263.5 114.5-440.5t331.5-177q111 0 194 51.5t130 141.5q88 174 88 438t-115.5 436-330.5 172q-111 0-194-50t-128-138q-90-170-90-433.5zm68 904.5q66 109 112.5 152.5t94 43.5 179.5-27.5 183-27.5 119 72l51-25q-43-94-87-150.5t-90-56.5-182.5 28-185.5 28q-78 0-147-70z"/><glyph unicode="Ö" horiz-adv-x="1456" d="M72 697.5q0 332.5 178 536.5t488.5 204 478-187.5 167.5-520.5-178-540.5-488-207.5-478 191.5-168 524zm227 10q0-263.5 114.5-440.5t331.5-177q111 0 194 51.5t130 141.5q88 174 88 438t-115.5 436-330.5 172q-111 0-194-50t-128-138q-90-170-90-433.5zm115 994.5q0 45 29.5 77.5t76.5 32.5q109 0 109-110 0-47-31-81t-78-34q-106 0-106 115zm395 0q0 45 29.5 77.5t76.5 32.5q109 0 109-110 0-47-31-81t-78-34q-106 0-106 115z"/><glyph unicode="×" horiz-adv-x="1062" d="M174 227l285 285-283 283 74 71 280-280 283 280 76-73-285-281 285-287-74-71-283 284-284-284z"/><glyph unicode="Ø" horiz-adv-x="1452" d="M72 692q0 338 178 542t493 204q154 0 277-54l102 197 113-41-111-213q260-184 260-602 0-338-178-540.5t-493-202.5q-135 0-258 43l-99-189-110 41 102 201q-276 182-276 614zm227 35q0-311 133-485l518 1007q-98 80-224 80t-209-50-128-136q-90-170-90-416zm223-571q98-66 216-66t201 50 130 139q88 168 88 435t-121 443z"/><glyph unicode="Ù" horiz-adv-x="1507" d="M80 1339l12 80h502l8-80-127-24q-41-8-41-53v-721q0-209 86-315.5t279.5-106.5 285 114.5 91.5 276.5v664q0 90-34 120.5t-163 44.5l12 80h482l8-80-127-24q-37-8-39-29-2-8-2-24v-736q0-252-137.5-398t-411.5-146q-528 0-528 528v702q0 63-24 86t-132 41zm350 428l123 105 356-264-51-74-412 190z"/><glyph unicode="Ú" horiz-adv-x="1507" d="M80 1339l12 80h502l8-80-127-24q-41-8-41-53v-721q0-209 86-315.5t279.5-106.5 285 114.5 91.5 276.5v664q0 90-34 120.5t-163 44.5l12 80h482l8-80-127-24q-37-8-39-29-2-8-2-24v-736q0-252-137.5-398t-411.5-146q-528 0-528 528v702q0 63-24 86t-132 41zm577 269l357 264 123-105-17-43-411-190z"/><glyph unicode="Û" horiz-adv-x="1507" d="M80 1339l12 80h502l8-80-127-24q-41-8-41-53v-721q0-209 86-315.5t279.5-106.5 285 114.5 91.5 276.5v664q0 90-34 120.5t-163 44.5l12 80h482l8-80-127-24q-37-8-39-29-2-8-2-24v-736q0-252-137.5-398t-411.5-146q-528 0-528 528v702q0 63-24 86t-132 41zm356 248l279 285h114l279-285-51-53-285 186-285-186z"/><glyph unicode="Ü" horiz-adv-x="1507" d="M80 1339l12 80h502l8-80-127-24q-41-8-41-53v-721q0-209 86-315.5t279.5-106.5 285 114.5 91.5 276.5v664q0 90-34 120.5t-163 44.5l12 80h482l8-80-127-24q-37-8-39-29-2-8-2-24v-736q0-252-137.5-398t-411.5-146q-528 0-528 528v702q0 63-24 86t-132 41zm395 363q0 45 30 77.5t77 32.5q109 0 108-110 0-47-30.5-81t-77.5-34q-106 0-107 115zm395 0q0 45 30 77.5t77 32.5q109 0 108-110 0-47-30.5-81t-77.5-34q-106 0-107 115z"/><glyph unicode="Ý" horiz-adv-x="1224" d="M10 1337l15 82h481l8-84-137-37q-14-2-14.5-12t14.5-35l235-452q20-35 21-60h20l228 441q43 82 43 100t-26 29.5-97 27.5l12 82h406l8-86q-90-18-125-39.5t-60-70.5l-323-635v-430q0-47 41-54l158-24-9-80h-563l-12 80q129 20 157.5 41.5t28.5 85.5v364l-368 678q-27 45-48.5 58.5t-93.5 29.5zm506 271l356 264 123-105-16-43-412-190z"/><glyph unicode="Þ" horiz-adv-x="1161" d="M90 80q109 18 132.5 41t23.5 86v1005q0 63-23.5 86t-132.5 41l12 80h502l8-80-127-24q-41-8-41-53v-121h220q229 0 344.5-100.5t115.5-278.5-153.5-304-440.5-126h-86v-174q0-49 41-54l179-24-9-80h-553zm354 360h50q145 0 260 56 66 31 104.5 95t38.5 151-28.5 147.5-75.5 89.5q-89 53-191 53h-117q-41 0-41-45v-547z"/><glyph unicode="ß" horiz-adv-x="1386" d="M92 80q100 20 122 41.5t22 75.5v632h-134l-8 89 101 24q27 6 35 22.5t10 51.5 6 63.5 17 92 32.5 111.5 58.5 107.5 88 98.5q121 92 284 92t271.5-90 108.5-246q0-82-48-151.5t-105.5-110.5-105.5-99.5-48-119.5q0-57 45-96 18-14 28.5-23.5t38-24 39.5-18.5l45-20q145-68 198.5-113t73-89 19.5-99q0-127-103.5-213t-272.5-86-273 49q-4 20-4 102t18 125l99 6q14-96 21-118.5t20-26.5q69-29 151-29 168 0 168 135 0 70-59 111-53 39-121 70-174 76-234.5 143t-60.5 170q0 111 102 211 41 43 82 84 102 98 102.5 209.5t-63 180.5-160.5 69q-139 0-208.5-138.5t-69.5-380.5v-954h-316z"/><glyph unicode="à" horiz-adv-x="1048" d="M86 252q0 154 131 229.5t426 77.5v66q0 266-192 266-92 0-116-26.5t-50-174.5l-111 12q-16 63-16 132t2 90q121 76 317.5 75.5t273-76 76.5-249.5v-471q0-53 26-75t130-42l-12-66-246-26q-20 0-43 39t-23 72.5 3 50.5l-17 6-24-37q-96-143-265-143-115 0-192.5 71.5t-77.5 198.5zm170 1206v47l164 62 219-367-72-51zm29-1188q0-74 38.5-111.5t110.5-37.5 162 69q47 37 47 78v201q-184-4-271-49.5t-87-149.5z"/><glyph unicode="á" horiz-adv-x="1048" d="M86 252q0 154 131 229.5t426 77.5v66q0 266-192 266-92 0-116-26.5t-50-174.5l-111 12q-16 63-16 132t2 90q121 76 317.5 75.5t273-76 76.5-249.5v-471q0-53 26-75t130-42l-12-66-246-26q-20 0-43 39t-23 72.5 3 50.5l-17 6-24-37q-96-143-265-143-115 0-192.5 71.5t-77.5 198.5zm199 18q0-74 38.5-111.5t110.5-37.5 162 69q47 37 47 78v201q-184-4-271-49.5t-87-149.5zm102 930l219 367 164-62v-47l-311-309z"/><glyph unicode="â" horiz-adv-x="1048" d="M86 252q0 154 131 229.5t426 77.5v66q0 266-192 266-92 0-116-26.5t-50-174.5l-111 12q-16 63-16 132t2 90q121 76 317.5 75.5t273-76 76.5-249.5v-471q0-53 26-75t130-42l-12-66-246-26q-20 0-43 39t-23 72.5 3 50.5l-17 6-24-37q-96-143-265-143-115 0-192.5 71.5t-77.5 198.5zm102 948l242 346h129l241-346-71-51-236 242-233-242zm97-930q0-74 38.5-111.5t110.5-37.5 162 69q47 37 47 78v201q-184-4-271-49.5t-87-149.5z"/><glyph unicode="ã" horiz-adv-x="1048" d="M86 252q0 154 131 229.5t426 77.5v66q0 266-192 266-92 0-116-26.5t-50-174.5l-111 12q-16 63-16 132t2 90q121 76 317.5 75.5t273-76 76.5-249.5v-471q0-53 26-75t130-42l-12-66-246-26q-20 0-43 39t-23 72.5 3 50.5l-17 6-24-37q-96-143-265-143-115 0-192.5 71.5t-77.5 198.5zm53 1001q66 115 113 162t94 47 179-43 182-43 120 88l52-26q-43-100-87-159.5t-90.5-59.5-182.5 43-185 43q-78 0-148-86zm146-983q0-74 38.5-111.5t110.5-37.5 162 69q47 37 47 78v201q-184-4-271-49.5t-87-149.5z"/><glyph unicode="ä" horiz-adv-x="1048" d="M86 252q0 154 131 229.5t426 77.5v66q0 266-192 266-92 0-116-26.5t-50-174.5l-111 12q-16 63-16 132t2 90q121 76 317.5 75.5t273-76 76.5-249.5v-471q0-53 26-75t130-42l-12-66-246-26q-20 0-43 39t-23 72.5 3 50.5l-17 6-24-37q-96-143-265-143-115 0-192.5 71.5t-77.5 198.5zm100 1091q0 45 30 78t77 33q109 0 108-111 0-47-30.5-80.5t-77.5-33.5q-106 0-107 114zm99-1073q0-74 38.5-111.5t110.5-37.5 162 69q47 37 47 78v201q-184-4-271-49.5t-87-149.5zm297 1073q0 45 29.5 78t76.5 33q109 0 109-111 0-47-31-80.5t-78-33.5q-106 0-106 114z"/><glyph unicode="å" horiz-adv-x="1048" d="M86 252q0 154 131 229.5t426 77.5v66q0 266-192 266-92 0-116-26.5t-50-174.5l-111 12q-16 63-16 132t2 90q121 76 317.5 75.5t273-76 76.5-249.5v-471q0-53 26-75t130-42l-12-66-246-26q-20 0-43 39t-23 72.5 3 50.5l-17 6-24-37q-96-143-265-143-115 0-192.5 71.5t-77.5 198.5zm199 18q0-74 38.5-111.5t110.5-37.5 162 69q47 37 47 78v201q-184-4-271-49.5t-87-149.5zm12 1077.5q0 92.5 54.5 145.5t150.5 53 147.5-50 51.5-140-54.5-145.5-150.5-55.5-147.5 50-51.5 142.5zm101-1.5q0-103 96-103 49 0 76.5 32t27.5 83q0 100-94 100-49 0-77.5-30.5t-28.5-81.5z"/><glyph unicode="æ" horiz-adv-x="1562" d="M86 264q0 139 130 217t427 97v47q0 266-192 266-92 0-115.5-27t-50.5-174l-111 12q-16 63-16 132t2 90q121 76 346 75.5t289-139.5q133 139 335 139 348 0 365-428l-53-39-594-32q0-379 323-379 141 0 277 69l43-67q-68-55-176.5-98t-227.5-43q-260 0-372 219h-13q-51-94-140-156.5t-204.5-62.5-193.5 71.5-78 210.5zm199 6q0-72 38.5-109.5t112.5-37.5 160 67q47 37 47 78v219q-188-18-273-66t-85-151zm569 324l424 37q20 2 20 39 0 90-48 155.5t-162.5 65.5-167-77-66.5-220z"/><glyph unicode="ç" horiz-adv-x="958" d="M70 469.5q0 207.5 98 357.5 51 80 150.5 126t246 46 289.5-57q2-16 2-105t-25-175l-114-13q-33 207-62 219-43 18-153.5 18.5t-161.5-75.5q-72-109-72-308.5t87-290.5 227.5-91 271.5 90l57-68q-166-162-390-161.5t-337.5 140.5-113.5 347.5zm332-651.5l78 264 100-27-43-153q33 6 72 6 66 0 111.5-35t45.5-96q0-86-95-149.5t-259-71.5l-8 63q195 27 194 119 0 33-24.5 55.5t-70.5 22.5-83-21z"/><glyph unicode="è" horiz-adv-x="978" d="M70 480q0 216 131 367.5t346 151.5q348 0 364-428l-53-39-594-32q0-379 324-379 141 0 276 69l43-67q-68-55-176-98t-227-43q-207 0-320.5 141t-113.5 357zm143 978v47l164 62 219-367-72-51zm57-864l424 37q20 2 21 39 0 90-48.5 155.5t-163 65.5-167-77-66.5-220z"/><glyph unicode="é" horiz-adv-x="978" d="M70 480q0 216 131 367.5t346 151.5q348 0 364-428l-53-39-594-32q0-379 324-379 141 0 276 69l43-67q-68-55-176-98t-227-43q-207 0-320.5 141t-113.5 357zm200 114l424 37q20 2 21 39 0 90-48.5 155.5t-163 65.5-167-77-66.5-220zm156 606l219 367 164-62v-47l-312-309z"/><glyph unicode="ê" horiz-adv-x="978" d="M70 480q0 216 131 367.5t346 151.5q348 0 364-428l-53-39-594-32q0-379 324-379 141 0 276 69l43-67q-68-55-176-98t-227-43q-207 0-320.5 141t-113.5 357zm127 720l241 346h129l242-346-72-51-235 242-234-242zm73-606l424 37q20 2 21 39 0 90-48.5 155.5t-163 65.5-167-77-66.5-220z"/><glyph unicode="ë" horiz-adv-x="978" d="M70 480q0 216 131 367.5t346 151.5q348 0 364-428l-53-39-594-32q0-379 324-379 141 0 276 69l43-67q-68-55-176-98t-227-43q-207 0-320.5 141t-113.5 357zm141 863q0 45 30 78t77 33q109 0 108-111 0-47-30.5-80.5t-77.5-33.5q-106 0-107 114zm59-749l424 37q20 2 21 39 0 90-48.5 155.5t-163 65.5-167-77-66.5-220zm337 749q0 45 29.5 78t76.5 33q109 0 109-111 0-47-31-80.5t-78-33.5q-106 0-106 114z"/><glyph unicode="ì" horiz-adv-x="634" d="M33 1458v47l164 62 219-367-72-51zm39-573l12 65q219 29 305 29l23-21v-811q0-25 11-31.5t30-11.5l100-24-8-80h-449l-12 80q100 20 121.5 41.5t21.5 75.5v587q0 43-32.5 62.5t-122.5 38.5z"/><glyph unicode="í" horiz-adv-x="634" d="M72 885l12 65q219 29 305 29l23-21v-811q0-25 11-31.5t30-11.5l100-24-8-80h-449l-12 80q100 20 121.5 41.5t21.5 75.5v587q0 43-32.5 62.5t-122.5 38.5zm135 315l219 367 164-62v-47l-311-309z"/><glyph unicode="î" horiz-adv-x="634" d="M-10 1200l241 346h129l242-346-72-51-235 242-234-242zm82-315l12 65q219 29 305 29l23-21v-811q0-25 11-31.5t30-11.5l100-24-8-80h-449l-12 80q100 20 121.5 41.5t21.5 75.5v587q0 43-32.5 62.5t-122.5 38.5z"/><glyph unicode="ï" horiz-adv-x="634" d="M-6 1343q0 45 29.5 78t76.5 33q109 0 109-111 0-47-31-80.5t-78-33.5q-106 0-106 114zm78-458l12 65q219 29 305 29l23-21v-811q0-25 11-31.5t30-11.5l100-24-8-80h-449l-12 80q100 20 121.5 41.5t21.5 75.5v587q0 43-32.5 62.5t-122.5 38.5zm317 458q0 45 30 78t77 33q109 0 108-111 0-47-30.5-80.5t-77.5-33.5q-106 0-107 114z"/><glyph unicode="ð" horiz-adv-x="1091" d="M66 479.5q0 235.5 125.5 377.5t353.5 142q100 0 188-32-66 219-196 381l-232-95-80 72 244 100q-55 59-121 109l107 57q68-49 137-114l260 108 82-74-270-110q336-385 335-897 0-240-125.5-381t-348-141-341 131-118.5 366.5zm198 26.5q0-182 74-299t201-117 180 62q37 41 59.5 130t22.5 193q0 187-75 301.5t-201 114.5-179-62q-37-41-59.5-130t-22.5-193z"/><glyph unicode="ñ" horiz-adv-x="1220" d="M72 903l12 66 264 26q14 0 29.5-57t15.5-100v-13l17-6 24 29q129 152 316 151 131 0 206.5-78.5t75.5-220.5v-553q0-25 11.5-31.5t29.5-11.5l101-24-9-80h-438l-12 80q92 18 112.5 40.5t20.5 76.5v442q0 96-35 154.5t-136.5 58.5-219.5-80l-27-18q-18-20-18-76v-528q0-23 7-31t34-15l90-24-8-80h-439l-12 80q100 20 121.5 41.5t21.5 75.5v589q0 53-25.5 75t-129.5 42zm188 350q66 115 113 162t94 47 179-43 182-43 120 88l51-26q-43-100-87-159.5t-90-59.5-182 43-185 43q-78 0-148-86z"/><glyph unicode="ò" horiz-adv-x="1064" d="M66 479.5q0 235.5 125.5 377.5t348 142 341-132 118.5-367.5-125.5-376.5-348-141-341 131-118.5 366.5zm196 978.5v47l164 62 219-367-72-51zm2-952q0-182 74-299t201-117 180 62q37 41 59.5 130t22.5 193q0 182-74 299t-201 117-180-62q-37-41-59.5-130t-22.5-193z"/><glyph unicode="ó" horiz-adv-x="1064" d="M66 479.5q0 235.5 125.5 377.5t348 142 341-132 118.5-367.5-125.5-376.5-348-141-341 131-118.5 366.5zm198 26.5q0-182 74-299t201-117 180 62q37 41 59.5 130t22.5 193q0 182-74 299t-201 117-180-62q-37-41-59.5-130t-22.5-193zm152 694l219 367 164-62v-47l-312-309z"/><glyph unicode="ô" horiz-adv-x="1064" d="M66 479.5q0 235.5 125.5 377.5t348 142 341-132 118.5-367.5-125.5-376.5-348-141-341 131-118.5 366.5zm149 720.5l242 346h129l241-346-71-51-236 242-233-242zm49-694q0-182 74-299t201-117 180 62q37 41 59.5 130t22.5 193q0 182-74 299t-201 117-180-62q-37-41-59.5-130t-22.5-193z"/><glyph unicode="õ" horiz-adv-x="1064" d="M66 479.5q0 235.5 125.5 377.5t348 142 341-132 118.5-367.5-125.5-376.5-348-141-341 131-118.5 366.5zm96 773.5q66 115 113 162t94 47 179-43 182-43 120 88l51-26q-43-100-87-159.5t-90-59.5-182 43-185 43q-78 0-148-86zm102-747q0-182 74-299t201-117 180 62q37 41 59.5 130t22.5 193q0 182-74 299t-201 117-180-62q-37-41-59.5-130t-22.5-193z"/><glyph unicode="ö" horiz-adv-x="1064" d="M66 479.5q0 235.5 125.5 377.5t348 142 341-132 118.5-367.5-125.5-376.5-348-141-341 131-118.5 366.5zm143 863.5q0 45 30 78t77 33q109 0 108-111 0-47-30.5-80.5t-77.5-33.5q-106 0-107 114zm55-837q0-182 74-299t201-117 180 62q37 41 59.5 130t22.5 193q0 182-74 299t-201 117-180-62q-37-41-59.5-130t-22.5-193zm341 837q0 45 29.5 78t76.5 33q109 0 109-111 0-47-31-80.5t-78-33.5q-106 0-106 114z"/><glyph unicode="÷" horiz-adv-x="954" d="M92 500v108h770v-108h-770zm254-254q0 53 33 88t84 35q121 0 121-117 0-49-34-85t-86-36-85 31-33 84zm0 638.5q0 53.5 33 88.5t84 35q121 0 121-117 0-49-34-85t-86-36-85 30.5-33 84z"/><glyph unicode="ø" horiz-adv-x="1064" d="M66 475q0 240 125.5 382t353.5 142q76 0 151-20l101 192 112-41-104-200q195-125 194-426 0-240-126-381t-353-141q-106 0-186 30l-76-147-111 41 84 164q-166 129-165 405zm198 2q0-133 53-237l320 620q-57 31-123 31-115 0-168-62-37-41-59.5-130t-22.5-222zm135-338q61-49 164-49t156 62q37 41 59.5 130t22.5 193q0 184-74 299z"/><glyph unicode="ù" horiz-adv-x="1181" d="M33 895l12 66q219 29 305 28l23-20v-627q0-213 162-213 104 0 217 80 27 18 35 35.5t8 58.5v492q0 43-33 62.5t-123 37.5l12 66q219 29 305 28l23-20v-766q0-53 25.5-75t130.5-42l-13-66-264-28q-14-2-29.5 54t-15.5 97v13l-16 6-25-29q-129-152-315-151-125 0-197 66.5t-72 205.5v541q0 43-32.5 62.5t-122.5 37.5zm250 563v47l164 62 219-367-72-51z"/><glyph unicode="ú" horiz-adv-x="1181" d="M33 895l12 66q219 29 305 28l23-20v-627q0-213 162-213 104 0 217 80 27 18 35 35.5t8 58.5v492q0 43-33 62.5t-123 37.5l12 66q219 29 305 28l23-20v-766q0-53 25.5-75t130.5-42l-13-66-264-28q-14-2-29.5 54t-15.5 97v13l-16 6-25-29q-129-152-315-151-125 0-197 66.5t-72 205.5v541q0 43-32.5 62.5t-122.5 37.5zm448 305l219 367 164-62v-47l-311-309z"/><glyph unicode="û" horiz-adv-x="1181" d="M33 895l12 66q219 29 305 28l23-20v-627q0-213 162-213 104 0 217 80 27 18 35 35.5t8 58.5v492q0 43-33 62.5t-123 37.5l12 66q219 29 305 28l23-20v-766q0-53 25.5-75t130.5-42l-13-66-264-28q-14-2-29.5 54t-15.5 97v13l-16 6-25-29q-129-152-315-151-125 0-197 66.5t-72 205.5v541q0 43-32.5 62.5t-122.5 37.5zm223 305l242 346h129l241-346-71-51-236 242-233-242z"/><glyph unicode="ü" horiz-adv-x="1181" d="M33 895l12 66q219 29 305 28l23-20v-627q0-213 162-213 104 0 217 80 27 18 35 35.5t8 58.5v492q0 43-33 62.5t-123 37.5l12 66q219 29 305 28l23-20v-766q0-53 25.5-75t130.5-42l-13-66-264-28q-14-2-29.5 54t-15.5 97v13l-16 6-25-29q-129-152-315-151-125 0-197 66.5t-72 205.5v541q0 43-32.5 62.5t-122.5 37.5zm221 448q0 45 29.5 78t76.5 33q109 0 109-111 0-47-31-80.5t-78-33.5q-106 0-106 114zm395 0q0 45 30 78t77 33q109 0 108-111 0-47-30.5-80.5t-77.5-33.5q-106 0-107 114z"/><glyph unicode="ý" horiz-adv-x="1024" d="M8 889l12 80h422l9-80-125-31q-14-2-15-16 0-2 8-27l209-547q10-29 11-63h16l217 563q12 33 12 54.5t-29.5 35.5-105.5 31l13 80h364l8-80q-90-20-96-35l-324-803q-41-102-65.5-156.5t-67.5-122-90-104.5q-117-88-282-117-53 53-54 168 0 12 4 41 49-6 136.5-6t138.5 21.5 123 224.5l-340 815q-16 39-29.5 49t-79.5 25zm466 311l219 367 164-62v-47l-312-309z"/><glyph unicode="þ" horiz-adv-x="1159" d="M41 1487l12 65q219 29 305 29l23-20v-576q0-113-14-160l16-6 20 27q119 154 285 153.5t272.5-132.5 106.5-361.5-121-376.5-338-147q-154 0-221 53l-14-6q8-45 8-90v-222q0-27 11-34t30-9l186-24-8-80h-534l-13 80q100 20 122 41.5t22 75.5v1619q0 43-33 62.5t-123 38.5zm340-1288q84-100 262-101 88 0 139 58 86 96 86 299.5t-64.5 300-162.5 96.5-205-70q-55-37-55-94v-489z"/><glyph unicode="ÿ" horiz-adv-x="1024" d="M8 889l12 80h422l9-80-125-31q-14-2-15-16 0-2 8-27l209-547q10-29 11-63h16l217 563q12 33 12 54.5t-29.5 35.5-105.5 31l13 80h364l8-80q-90-20-96-35l-324-803q-41-102-65.5-156.5t-67.5-122-90-104.5q-117-88-282-117-53 53-54 168 0 12 4 41 49-6 136.5-6t138.5 21.5 123 224.5l-340 815q-16 39-29.5 49t-79.5 25zm230 454q0 45 29.5 78t76.5 33q109 0 109-111 0-47-31-80.5t-78-33.5q-106 0-106 114zm395 0q0 45 29.5 78t76.5 33q109 0 109-111 0-47-31-80.5t-78-33.5q-106 0-106 114z"/><glyph unicode="Œ" horiz-adv-x="2033" d="M72 697.5q0 332.5 178 536.5t493 204q39 0 136-4 338-14 999-15 12-76 12-150.5t-4-168.5l-117-15q-29 141-41 177t-28 38q-49 6-125 9l-309 6v-551h307q27 0 65 145l64-6q0-150 5-209t6-71.5 8.5-59.5 9.5-65l-74-13q-33 117-44 143.5t-26 26.5h-321v-551l176 2q266 4 301 29 20 14 86 240l113-8q2-27 2-121t-23-246q-760 0-969.5-9t-238.5-9q-305 0-473 191.5t-168 524zm227 29.5q0-283 114.5-460t332-177 266.5 49q55 55 55 168v817q0 129-65.5 167t-239.5 38q-463 0-463-602z"/><glyph unicode="œ" horiz-adv-x="1710" d="M66 479.5q0 235.5 125.5 377.5t362.5 142 349-198q127 199 375 198 348 0 364-428l-53-39-594-32q0-209 80-294t226.5-85 281.5 69l43-67q-68-55-176.5-98t-226.5-43q-229 0-338 186-117-186-365-186-217 0-335.5 131t-118.5 366.5zm198 26.5q0-182 74-299t201-117 180 62q78 92 78 299.5t-72 323.5-199 116-180-62q-37-41-59.5-130t-22.5-193zm737 88l424 37q20 2 21 39 0 90-48 155.5t-163 65.5-167.5-77-66.5-220z"/><glyph unicode="Ÿ" horiz-adv-x="1224" d="M10 1337l15 82h481l8-84-137-37q-14-2-14.5-12t14.5-35l235-452q20-35 21-60h20l228 441q43 82 43 100t-26 29.5-97 27.5l12 82h406l8-86q-90-18-125-39.5t-60-70.5l-323-635v-430q0-47 41-54l158-24-9-80h-563l-12 80q129 20 157.5 41.5t28.5 85.5v364l-368 678q-27 45-48.5 58.5t-93.5 29.5zm336 365q0 45 30 77.5t77 32.5q109 0 108-110 0-47-30.5-81t-77.5-34q-106 0-107 115zm395 0q0 45 30 77.5t77 32.5q109 0 108-110 0-47-30.5-81t-77.5-34q-106 0-107 115z"/><glyph unicode="ˆ" horiz-adv-x="612" d="M0 1200l242 346h129l241-346-71-51-236 242-233-242z"/><glyph unicode="˜" horiz-adv-x="739" d="M0 1253q66 115 113 162t94 47 179-43 182-43 120 88l51-26q-43-100-87-159.5t-90-59.5-182 43-185 43q-78 0-148-86z"/><glyph horiz-adv-x="941"/><glyph horiz-adv-x="1882"/><glyph horiz-adv-x="941"/><glyph horiz-adv-x="1882"/><glyph horiz-adv-x="627"/><glyph horiz-adv-x="470"/><glyph horiz-adv-x="313"/><glyph horiz-adv-x="313"/><glyph horiz-adv-x="235"/><glyph horiz-adv-x="376"/><glyph horiz-adv-x="104"/><glyph unicode="‐" horiz-adv-x="604" d="M70 416l24 151 447 29-33-127z"/><glyph unicode="‑" horiz-adv-x="604" d="M70 416l24 151 447 29-33-127z"/><glyph unicode="‒" horiz-adv-x="604" d="M70 416l24 151 447 29-33-127z"/><glyph unicode="–" horiz-adv-x="1024" d="M-4 446l24 109h1008l-24-109h-1008z"/><glyph unicode="—" horiz-adv-x="2048" d="M-4 446l24 109h2032l-24-109h-2032z"/><glyph unicode="‘" horiz-adv-x="440" d="M86 1215.5q0 82.5 50.5 180t148.5 173.5l55-53q-96-115-96-218 0-37 32.5-76.5t32.5-77.5-31.5-64.5-78.5-26.5-80 40-33 122.5z"/><glyph unicode="’" horiz-adv-x="440" d="M100 1106q96 115 97 217 0 37-33 77t-33 78 32 64.5 79 26.5 79.5-40 32.5-123-50-180-148-173z"/><glyph unicode="‚" horiz-adv-x="479" d="M113-231q96 115 96 217 0 37-33 76.5t-33 77.5 32 64.5 79 26.5 80-39.5 33-122.5-50.5-180.5-148.5-173.5z"/><glyph unicode="“" horiz-adv-x="831" d="M86 1215.5q0 82.5 50.5 180t148.5 173.5l55-53q-96-115-96-218 0-37 32.5-76.5t32.5-77.5-31.5-64.5-78.5-26.5-80 40-33 122.5zm391 0q0 82.5 50.5 180t148.5 173.5l55-53q-96-115-96-218 0-37 32.5-76.5t32.5-77.5-31.5-64.5-78.5-26.5-80 40-33 122.5z"/><glyph unicode="”" horiz-adv-x="831" d="M100 1106q96 115 97 217 0 37-33 77t-33 78 32 64.5 79 26.5 79.5-40 32.5-123-50-180-148-173zm392 0q96 115 96 217 0 37-33 77t-33 78 32 64.5 79 26.5 79.5-40 32.5-123-50-180-148-173z"/><glyph unicode="„" horiz-adv-x="870" d="M113-231q96 115 96 217 0 37-33 76.5t-33 77.5 32 64.5 79 26.5 80-39.5 33-122.5-50.5-180.5-148.5-173.5zm391 0q96 115 96 217 0 37-32.5 76.5t-32.5 77.5 31.5 64.5 78.5 26.5 80-39.5 33-122.5-50.5-180.5-148.5-173.5z"/><glyph unicode="•" horiz-adv-x="702" d="M82 513q0 120 72.5 195.5t193.5 75.5 197-62.5 76-185-74-199.5-194-77-195.5 66.5-75.5 186.5z"/><glyph unicode="…" horiz-adv-x="1761" d="M195 101.5q0 56.5 33.5 93t88.5 36.5q127 0 127-122 0-54-34.5-90.5t-90-36.5-90 31.5-34.5 88zm561 0q0 56.5 33.5 93t89.5 36.5q127 0 127-122 0-54-35-90.5t-90.5-36.5-90 31.5-34.5 88zm561 0q0 56.5 33.5 93t89.5 36.5q127 0 127-122 0-54-35-90.5t-90.5-36.5-90 31.5-34.5 88z"/><glyph horiz-adv-x="376"/><glyph unicode="‹" horiz-adv-x="581" d="M123 500v32l334 349 43-33-215-332 215-356-43-33z"/><glyph unicode="›" horiz-adv-x="581" d="M82 160l215 356-215 332 43 33 334-349v-32l-334-373z"/><glyph horiz-adv-x="470"/><glyph unicode="€" horiz-adv-x="1198" d="M20 504v104h768v-104h-385q37-207 135.5-307.5t229.5-100.5q55 0 103.5 18.5t60.5 32.5q25 18 69 263l113-4q0-156-22-332-53-35-162-63.5t-221-28.5q-231 0-365.5 143t-171.5 379h-152zm0 250v104h152q39 250 180.5 415t399.5 165q92 0 195.5-20.5t135.5-37.5q12-76 12.5-158.5t-3.5-185.5l-117-16q-45 238-80 262-12 14-68.5 30.5t-109.5 16.5q-143 0-224-127t-100-344h395v-104h-768z"/><glyph unicode="™" horiz-adv-x="2091" d="M61 1227q0 109 29 196h678q27-80 31-196l-78-8q-31 88-37 102t-19.5 18-76.5 4h-72v-663q0-27 27-31l98-14-4-66h-401l-11 66q80 12 98.5 25.5t18.5 50.5v632h-70q-63 0-77.5-4t-20.5-18-33-102zm834-592q72 14 87 23.5t17 46.5l35 577q2 39-14 51.5t-84 24.5l6 65h289l207-542 8-33h14q0 6 6 24l215 551h295l6-65-84-15q-25-4-24-26v-6l37-631q4-27 26-31l82-14-6-66h-373l-6 66q63 10 80 23.5t17 41.5v11l-15 508q0 23 4 47l-12 2-240-633h-118l-222 590q-6 16-6 35h-10l-27-543q0-41 13.5-54.5t34.5-17.5l59-10-4-66h-285z"/><glyph unicode="◼" horiz-adv-x="972" d="M0 0v973h973v-973h-973z"/></font>
</defs>
</svg>
